<svg width="38" height="38" viewBox="0 0 38 38" fill="none" xmlns="http://www.w3.org/2000/svg">
<path d="M35.9544 8.39782L31.3231 6.35782C31.3213 6.35344 31.3219 6.34782 31.32 6.34344C31.1613 5.80594 30.7569 5.35907 30.2106 5.11719L30.0344 5.03844C30.0824 4.76846 30.0661 4.49097 29.9869 4.22844C29.8275 3.69719 29.425 3.25782 28.8831 3.02282L25.94 1.74594C25.6677 1.62831 25.3741 1.5679 25.0775 1.56844C24.4963 1.56844 23.9606 1.78969 23.5831 2.17469L23.2538 2.02844C22.9824 1.90821 22.6887 1.84646 22.3919 1.84719C22.0806 1.84719 21.7881 1.92157 21.5213 2.04157L17.9963 0.488442C16.7669 -0.0515582 15.2313 0.365317 14.5444 1.41219L0.613763 22.6941C-0.0718622 23.7409 0.236888 25.1991 1.32001 25.9616L17.1575 37.1128C18.5594 38.1003 20.365 37.9266 21.1656 36.7053L37.41 11.8884C38.21 10.6672 37.545 9.09844 35.9544 8.39782ZM20.5881 5.02344L21.6656 3.37782C21.815 3.14907 22.0994 3.01907 22.3925 3.01907C22.5231 3.01907 22.6556 3.04469 22.7788 3.09969L23.9856 3.63469L24.3338 3.10344C24.4856 2.87282 24.7769 2.74032 25.0781 2.74032C25.2119 2.74032 25.3481 2.76594 25.4744 2.82094L28.4175 4.09844C28.8475 4.28469 29.015 4.71719 28.7913 5.06219L28.4325 5.60907L29.7369 6.18844C30.1763 6.38282 30.3494 6.82532 30.1213 7.17594L28.98 8.91719C28.8275 9.15094 28.5369 9.28094 28.2306 9.28094C28.0781 9.28094 27.9219 9.24782 27.7763 9.18094L20.91 5.95594C20.5144 5.77032 20.3706 5.35407 20.5881 5.02344ZM18.6444 35.2622L2.32064 24.1016L16.6788 2.16907L20.0488 3.70782L19.6081 4.38157C19.4687 4.59257 19.3763 4.83109 19.3371 5.08094C19.298 5.3308 19.313 5.58616 19.3813 5.82969C19.5263 6.34407 19.9019 6.77657 20.4113 7.01594L27.2769 10.2409C27.5753 10.3798 27.9003 10.4518 28.2294 10.4522C28.9469 10.4522 29.5944 10.1178 29.96 9.55719L30.6275 8.53782L34.8706 10.4753L18.6444 35.2622Z" fill="#311B92"/>
<path d="M18.8038 11.1122L27.9894 15.8228L28.5019 15.0391L19.2856 10.3753L18.8038 11.1122Z" fill="#311B92"/>
<path d="M15.6588 10.5434C15.6956 10.6472 15.8063 10.6866 15.9081 10.6291L18.3956 9.23469C18.4192 9.22244 18.4396 9.20495 18.4554 9.18357C18.4711 9.16219 18.4818 9.13748 18.4865 9.11135C18.4912 9.08522 18.4898 9.05835 18.4825 9.03282C18.4752 9.00729 18.4622 8.98377 18.4444 8.96407L18.3081 8.80157C18.2688 8.75701 18.2156 8.72694 18.1571 8.71617C18.0987 8.70541 18.0383 8.71457 17.9856 8.74219L16.2831 9.70094C16.1831 9.75844 16.0706 9.72032 16.0356 9.61594L15.7363 8.74469C15.7006 8.64282 15.5763 8.57969 15.4588 8.60407L15.2431 8.64844C15.1263 8.67219 15.0575 8.77657 15.0931 8.87844L15.6588 10.5434Z" fill="#311B92"/>
<path d="M15.9813 15.4222L24.985 20.4122L25.4988 19.6284L16.4644 14.6847L15.9813 15.4222Z" fill="#311B92"/>
<path d="M15.8213 13.2066L13.1331 11.7591L11.5994 14.1028L14.2581 15.5959L15.8213 13.2066Z" fill="#311B92"/>
<path d="M13.1606 19.7322L21.9813 25.0016L22.4938 24.2159L13.6419 18.9953L13.1606 19.7322Z" fill="#311B92"/>
<path d="M13.0244 17.4809L10.3894 15.9484L8.85626 18.2922L11.46 19.8709L13.0244 17.4809Z" fill="#311B92"/>
<path d="M10.3394 24.0416L18.9769 29.5891L19.4913 28.8053L10.8213 23.3053L10.3394 24.0416Z" fill="#311B92"/>
<path d="M6.11251 22.4834L8.66126 24.1441L10.2256 21.7541L7.64626 20.1409L6.11251 22.4834Z" fill="#311B92"/>
</svg>
