<svg width="28" height="38" viewBox="0 0 28 38" fill="none" xmlns="http://www.w3.org/2000/svg">
<path d="M14.9656 15.6331C14.6936 15.6078 14.4207 15.5939 14.1475 15.5912C8.73 15.5912 4.34062 19.9887 4.34062 25.415C4.34062 27.0337 4.73875 28.5556 5.43062 29.9013C5.06986 28.8061 4.88569 27.6605 4.885 26.5075C4.885 20.7544 9.32937 16.0519 14.9656 15.6331Z" fill="#311B92"/>
<path d="M18.0831 33.4619C17.1254 34.1033 16.0736 34.5917 14.9656 34.9094C16.5133 34.7189 17.9945 34.1669 19.2894 33.2981C23.7913 30.2719 25.0131 24.2356 22.0188 19.8119C21.866 19.591 21.704 19.3766 21.5331 19.1694C24.3 24.0025 22.855 30.2538 18.0831 33.4619Z" fill="#311B92"/>
<path d="M21.91 15.5744V10.1381C21.91 9.91062 21.7856 9.71937 21.61 9.60063L27.75 0.25H15.9775L14 3.21625L12.0225 0.25H0.25L6.38875 9.6C6.21313 9.71875 6.08875 9.91062 6.08875 10.1381V15.5744C3.28812 17.8669 1.5 21.3487 1.5 25.25C1.5 32.1531 7.09688 37.75 14 37.75C14.4263 37.75 14.8463 37.7281 15.2613 37.6862C21.5719 37.0544 26.5 31.7281 26.5 25.25C26.5 21.3487 24.7106 17.8669 21.91 15.5744ZM19.5163 0.875H23.4712L17.955 9.14937L15.9775 6.18313L19.5163 0.875ZM19.9325 12.1156L20.5406 11.2044C20.5737 11.2825 20.5919 11.3675 20.5919 11.4569V14.0938C20.5913 14.1753 20.5746 14.2559 20.5427 14.331C20.5109 14.4061 20.4645 14.4742 20.4062 14.5312C18.5312 13.4075 16.345 12.75 14 12.75C11.7419 12.7504 9.52661 13.3664 7.5925 14.5319C7.47528 14.416 7.40856 14.2586 7.40688 14.0938V11.4569C7.40688 11.3675 7.42625 11.2819 7.45813 11.2044L8.06625 12.1163L19.9325 12.1156ZM4.52875 0.875H8.48375L15.5613 11.4906H11.6062L4.52875 0.875ZM14 35.875C8.13188 35.875 3.375 31.1181 3.375 25.25C3.375 19.3825 8.13188 14.625 14 14.625C19.8669 14.625 24.625 19.3825 24.625 25.25C24.625 31.1181 19.8669 35.875 14 35.875Z" fill="#311B92"/>
<path d="M15.3962 29.7544V18.375H12.9937C12.9938 18.6241 12.9448 18.8707 12.8496 19.1009C12.7543 19.331 12.6147 19.5401 12.4386 19.7163C12.2625 19.8924 12.0534 20.0321 11.8233 20.1275C11.5932 20.2228 11.3466 20.2719 11.0975 20.2719V22.6425C11.2688 22.6425 12.5631 22.545 12.9937 22.3725V29.7544H11.0975V32.125H17.2925V29.7544H15.3962Z" fill="#311B92"/>
</svg>
