<svg width="623" height="431" viewBox="0 0 623 431" fill="none" xmlns="http://www.w3.org/2000/svg">
<g clip-path="url(#clip0)">
<path d="M0 0H623V431H0V0Z" fill="white"/>
<path d="M62.3984 73.3097C79.2398 73.3097 92.8924 59.7486 92.8924 43.0201C92.8924 26.2916 79.2398 12.7305 62.3984 12.7305C45.557 12.7305 31.9043 26.2916 31.9043 43.0201C31.9043 59.7486 45.557 73.3097 62.3984 73.3097Z" fill="#311B92"/>
<path opacity="0.1" d="M58.6728 104.682C71.4765 133.408 55.1439 166.486 35.9187 191.394C29.484 199.746 22.3803 208.503 21.4883 218.98C20.4126 231.795 29.1495 243.575 39.5132 251.276C58.417 265.31 84.2343 269.649 106.733 262.567C126.174 256.449 142.52 242.63 162.132 237.06C194.929 227.73 229.693 243.197 257.78 262.469C277.661 276.093 298.952 292.694 322.92 289.775C339.784 287.723 354.096 275.962 363.81 262.117C368.5 255.433 372.58 247.94 379.408 243.432C383.468 240.747 388.237 239.327 393.006 238.31C436.553 229.065 482.769 251.628 525.739 240.024C554.764 232.206 577.905 209.402 592.296 183.165C606.687 156.928 613.404 127.303 618.999 97.9514C622.974 77.1025 626.273 54.5791 617.136 35.4046C607.468 15.1029 585.087 2.7955 562.596 0.489088C540.104 -1.81733 517.547 4.54812 496.826 13.5262C470.936 24.7716 445.559 40.5126 417.301 40.5647C398.056 40.6038 379.703 33.2676 361.305 27.6709C330.542 18.3215 298.552 13.676 266.674 9.38898C236.154 5.28434 205.332 1.46638 174.628 3.89007C152.903 5.6036 133.717 13.852 112.636 17.6699C98.8943 20.1588 85.087 18.3215 71.6011 22.4912C54.9931 27.6514 37.9127 39.6069 36.9944 58.4361C36.1286 76.3597 51.884 89.4425 58.6728 104.682Z" fill="#311B92"/>
<path d="M394.803 130.261C392.002 123.01 384.78 105.966 380.025 109.347C374.016 113.621 386.033 132.502 386.033 132.502C386.374 135.969 379.618 143.181 375.997 146.777C375.997 146.491 375.997 146.328 375.997 146.328C375.963 146.465 375.91 146.596 375.84 146.719L375.538 146.556C375.457 146.843 375.312 147.108 375.112 147.331C375.112 146.843 375.079 146.556 375.079 146.556C374.384 149.481 362.249 153.188 362.249 153.188C362.249 153.188 361.921 153.188 361.357 153.188C357.985 153.188 349.209 152.433 345.142 145.97C343.039 142.468 340.348 139.35 337.186 136.75C336.103 135.908 334.788 135.412 333.414 135.33C322.178 134.613 313.081 128.965 311.264 127.759L310.929 127.531L310.857 127.74C310.431 127.134 310.017 126.489 309.63 125.824L309.434 125.466C312.153 124.11 314.442 122.032 316.046 119.463C317.649 116.894 318.505 113.934 318.518 110.911C318.518 110.8 318.518 110.683 318.518 110.572C319.507 108.875 320.027 106.949 320.027 104.988V103.034L322.592 100.766C323.766 99.7305 324.979 98.6359 325.576 97.209C325.816 96.6316 325.923 96.0085 325.891 95.3848C325.948 94.8504 325.868 94.3103 325.657 93.8155C325.445 93.3207 325.111 92.8876 324.684 92.5571C322.716 91.2084 319.437 92.5571 318.013 90.6807C317.357 89.8337 317.475 88.6805 317.154 87.6837C316.498 85.6574 314.137 84.5629 311.952 84.5303C309.768 84.4977 307.676 85.2861 305.577 85.8789C301.167 87.1225 296.565 87.5509 291.999 87.1429C290.764 86.9246 289.496 86.969 288.28 87.2732C287.537 87.5783 286.877 88.0528 286.353 88.6583C285.828 89.2639 285.455 89.9835 285.263 90.7589C285.101 91.3416 285.004 91.9403 284.974 92.5441C283.144 94.5943 282.132 97.2381 282.127 99.9781V104.988C282.131 107.663 283.097 110.248 284.85 112.279C285.056 114.636 285.778 116.921 286.964 118.973C288.15 121.025 289.772 122.796 291.717 124.163C291.717 124.293 291.717 124.426 291.717 124.56L291.802 124.612C291.696 126.166 291.455 127.707 291.081 129.219V128.886C291.081 128.886 281.898 133.74 272.059 133.858H270.977C269.036 133.793 267.148 134.496 265.729 135.812C262.817 138.536 257.714 142.842 254.578 142.842C253.923 142.842 237.367 146.054 234.625 146.588L229.502 141.604L229.345 141.897L229.043 141.604C228.483 141.647 227.926 141.728 227.377 141.845C224.753 138.757 219.506 131.577 218.293 121.941C218.293 121.941 229.62 109.126 225.455 97.183C221.9 87.0061 212.107 108.819 209.326 115.393C208.84 116.54 208.779 117.822 209.155 119.009L218.358 148.471C217.482 150.754 217.231 153.227 217.63 155.638H217.525L224.229 164.18C224.229 164.18 229.273 166.317 237.164 166.278C242.947 166.287 248.678 165.195 254.047 163.059H255.602L255.307 163.17H263.289L268.366 178.422C268.196 179.81 265.742 199.18 263.775 203.513C263.191 204.96 262.927 206.516 263.001 208.073C263.104 211.066 263.596 214.034 264.463 216.902L268.91 216.739L268.74 217.084C264.975 224.753 258.685 238.415 254.965 251.185L248.491 264.216L253.345 322.658H253.542L253.916 322.717C254.441 322.795 255.228 322.912 256.264 323.042L255.884 323.694L245.186 341.285C245.186 341.285 237.557 356.798 254.434 353.873C254.434 353.873 260.672 352.074 263.217 341.494L274.315 331.154C274.315 331.154 274.834 324.287 271.692 321.544C271.495 318.371 270.996 309.106 271.764 306.878C272.689 304.181 267.828 273.161 267.828 273.161C267.828 273.161 285.394 236.969 296.033 236.07C296.813 236.015 297.596 236.117 298.335 236.369C307.079 239.197 317.672 260.196 320.788 266.731L320.932 267.03V267.089L321.05 267.343V267.415L321.155 267.636V267.695L321.247 267.897V267.942L321.326 268.105V268.17L321.385 268.294V268.346L321.424 268.438V268.49V268.548L321.457 268.627L322.841 309.315L322.979 309.386H323.044L322.926 310.227L322.323 314.429C322.323 314.429 329.951 330.392 329.485 332.411C329.02 334.431 334.569 342.53 342.427 340.282C350.285 338.034 345.608 325.362 345.608 325.362L338.039 309.868L337.704 309.178C338.458 308.718 339.169 308.193 339.829 307.608C339.829 307.608 337.521 290.974 339.829 287.378C342.138 283.781 342.834 267.369 342.834 267.369C342.834 267.369 341.213 256.13 338.439 251.185L326.816 209.976C330.299 213.194 333.008 214.452 335.271 214.367H335.645C336.639 214.386 337.621 214.143 338.491 213.663C338.958 213.402 339.398 213.094 339.803 212.745C339.881 212.679 339.953 212.607 340.02 212.53C343.253 209.832 336.32 199.265 332.391 192.984C328.606 186.925 333.821 170.461 334.215 169.236C334.565 168.98 334.941 168.762 335.336 168.584C336.15 168.238 337.023 168.05 337.908 168.03C341.673 168.161 346.303 170.311 352.036 171.392C356.02 172.065 360.058 172.377 364.099 172.324H364.335C365.942 172.324 367.398 172.291 368.579 172.246C369.656 172.204 370.71 171.921 371.662 171.418C372.477 170.946 373.216 170.353 373.852 169.659L383.914 158.368L383.652 158.492C384.14 157.211 384.14 155.798 383.652 154.518L394.284 136.275C394.821 135.376 395.147 134.368 395.236 133.327C395.326 132.286 395.178 131.238 394.803 130.261Z" fill="url(#paint0_linear)"/>
<path d="M275.345 329.609L264.634 339.805C262.181 350.23 256.153 351.995 256.153 351.995C239.866 354.875 247.226 339.616 247.226 339.616L257.557 322.253L258.829 320.11C258.829 320.11 266.195 317.894 271.101 319.224C271.721 319.392 272.293 319.7 272.774 320.123C275.85 322.774 275.345 329.609 275.345 329.609Z" fill="#444176"/>
<path d="M341.391 338.698C333.802 340.913 328.449 332.938 328.928 330.938C329.407 328.938 321.995 313.229 321.995 313.229L322.572 309.086L323.11 305.248L335.573 306.134L336.747 308.584L344.054 323.862C344.054 323.862 348.98 336.482 341.391 338.698Z" fill="#444176"/>
<path opacity="0.1" d="M272.892 321.855C271.718 323.855 262.2 322.845 257.563 322.22L258.835 320.076C258.835 320.076 266.202 317.861 271.108 319.19C271.727 319.359 272.3 319.667 272.78 320.089C272.846 321.171 272.892 321.855 272.892 321.855Z" fill="black"/>
<path opacity="0.1" d="M336.76 308.57C330.378 312.792 323.582 309.6 322.559 309.072L323.097 305.234L335.56 306.12L336.76 308.57Z" fill="black"/>
<path d="M338.491 286.393C336.261 289.937 338.491 306.343 338.491 306.343C331.125 312.995 322.428 308.115 322.428 308.115L321.116 268C321.116 268 306.613 234.974 296.348 235.86C286.083 236.746 269.127 272.431 269.127 272.431C269.127 272.431 273.81 303.014 272.918 305.659C272.026 308.304 272.918 321.172 272.918 321.172C271.357 323.83 255.071 321.172 255.071 321.172L250.387 263.544L256.605 250.683C260.18 238.095 266.254 224.621 269.888 217.064C271.692 213.304 272.899 211.011 272.899 211.011L284.771 208.555L323.307 200.619L337.153 250.683C339.83 255.556 341.391 266.639 341.391 266.639C341.391 266.639 340.722 282.849 338.491 286.393Z" fill="#565387"/>
<g opacity="0.1">
<path opacity="0.1" d="M325.996 308.116L324.684 268.001C324.684 268.001 310.182 234.975 299.916 235.861C299.458 235.906 299.006 236.006 298.572 236.161C308.581 239.464 321.116 268.001 321.116 268.001L322.428 308.116C325.165 309.501 328.25 310.06 331.303 309.725C329.452 309.504 327.655 308.959 325.996 308.116Z" fill="black"/>
<path opacity="0.1" d="M258.613 321.192L253.929 263.564L260.174 250.683C263.749 238.096 269.822 224.622 273.456 217.064C275.26 213.305 276.467 211.012 276.467 211.012L288.339 208.555L323.517 201.291L323.326 200.594L284.771 208.555L272.899 211.012C272.899 211.012 271.692 213.305 269.888 217.064C266.241 224.622 260.18 238.122 256.606 250.683L250.361 263.538L255.044 321.166C255.044 321.166 263.939 322.619 269.212 322.3C265.663 322.108 262.125 321.738 258.613 321.192Z" fill="black"/>
</g>
<path d="M231.477 142.666C231.477 142.666 218.759 143.318 220.543 156.628L224.111 157.071L229.463 151.312L232.139 146.438V145.331L231.477 142.666Z" fill="#CED2DF"/>
<path opacity="0.1" d="M231.477 142.666C231.477 142.666 218.759 143.318 220.543 156.628L224.111 157.071L229.463 151.312L232.139 146.438V145.331L231.477 142.666Z" fill="black"/>
<path d="M372.967 147.539C372.967 147.539 383.462 153.077 380.779 159.508L377.434 160.811L372.974 158.374L372.318 152.614L372.764 148.627L372.967 147.539Z" fill="#CED2DF"/>
<path opacity="0.1" d="M372.967 147.539C372.967 147.539 383.462 153.077 380.779 159.508L377.434 160.811L372.974 158.374L372.318 152.614L372.764 148.627L372.967 147.539Z" fill="black"/>
<path d="M305.583 90.3535H296.656C289.016 90.3535 282.823 96.5055 282.823 104.094C282.823 111.683 289.016 117.835 296.656 117.835H305.583C313.223 117.835 319.417 111.683 319.417 104.094C319.417 96.5055 313.223 90.3535 305.583 90.3535Z" fill="#88455E"/>
<path d="M231.392 144.549L223.58 156.928L222.924 154.726L212.311 120.377C211.948 119.206 212.006 117.946 212.475 116.813C215.157 110.337 224.616 88.7975 228.046 98.8637C232.061 110.591 221.126 123.244 221.126 123.244C222.373 133.512 228.178 140.953 230.46 143.533C231.037 144.204 231.392 144.549 231.392 144.549Z" fill="#EC8C9C"/>
<path d="M371.294 149.865C371.294 149.865 383.567 138.34 383.101 133.688C383.101 133.688 371.498 115.073 377.303 110.884C381.894 107.548 388.867 124.358 391.569 131.505C391.926 132.457 392.07 133.475 391.989 134.488C391.909 135.501 391.607 136.484 391.103 137.369L376.437 163.163L371.294 149.865Z" fill="#EC8C9C"/>
<path d="M291.855 117.731C291.855 117.731 294.085 131.915 287.618 137.238C281.15 142.561 306.141 142.528 306.141 142.528L315.068 134.326C315.068 134.326 304.803 124.794 307.925 117.705L291.855 117.731Z" fill="#EC8C9C"/>
<path opacity="0.1" d="M291.409 133.91C291.409 133.91 301.005 141.005 310.595 133.023L326.212 165.163L325.32 204.392C325.32 204.392 292.963 221.013 279.576 210.823C266.188 200.633 277.346 195.31 277.346 195.31L274.223 165.17L277.569 145.663C277.569 145.663 283.59 136.353 284.043 136.353C284.495 136.353 291.409 133.91 291.409 133.91Z" fill="black"/>
<path d="M291.409 133.466C291.409 133.466 301.005 140.574 310.602 132.58L326.219 164.72L325.327 203.949C325.327 203.949 292.97 220.569 279.583 210.379C266.195 200.189 277.353 194.866 277.353 194.866L274.23 164.727L277.576 145.22C277.576 145.22 283.597 135.909 284.05 135.909C284.502 135.909 291.409 133.466 291.409 133.466Z" fill="#EBF1F6"/>
<path opacity="0.1" d="M291.409 130.15C291.409 130.15 282.311 135.297 272.433 135.043C271.506 135.015 270.583 135.169 269.717 135.498C268.851 135.827 268.06 136.323 267.389 136.959C264.575 139.643 259.649 143.891 256.599 143.891C255.943 143.891 236.96 147.657 236.96 147.657L231.943 142.673C231.943 142.673 224.465 157.189 220.897 156.524L227.371 164.949C227.371 164.949 239.643 170.265 255.707 163.841H265.08L269.986 178.911C269.986 178.911 267.533 199.304 265.526 203.734C263.519 208.165 266.182 216.81 266.182 216.81L283.807 216.159C283.807 216.159 284.699 207.513 286.037 206.386C287.375 205.259 281.354 167.157 281.354 167.157C281.354 167.157 277.339 145.657 292.065 137.904L291.409 130.15Z" fill="black"/>
<path opacity="0.1" d="M284.764 208.58C284.115 211.209 283.653 213.881 283.38 216.574L269.888 217.083C271.692 213.323 272.899 211.03 272.899 211.03L284.764 208.58Z" fill="black"/>
<path opacity="0.1" d="M231.392 144.548L223.58 156.927L222.924 154.725C225.79 151.898 229.148 145.988 230.486 143.525C231.037 144.203 231.392 144.548 231.392 144.548Z" fill="black"/>
<path d="M291.409 130.15C291.409 130.15 281.859 135.297 271.987 135.043C271.06 135.015 270.137 135.169 269.271 135.498C268.405 135.827 267.614 136.323 266.943 136.959C264.129 139.643 259.203 143.891 256.153 143.891C255.497 143.891 236.514 147.657 236.514 147.657L231.477 142.666C231.477 142.666 223.999 157.182 220.431 156.518L226.905 164.942C226.905 164.942 239.177 170.259 255.241 163.834H264.614L269.521 178.898C269.521 178.898 267.067 199.291 265.06 203.721C263.053 208.152 265.716 216.797 265.716 216.797L283.341 216.146C283.341 216.146 284.233 207.5 285.571 206.373C286.909 205.246 280.888 167.144 280.888 167.144C280.888 167.144 276.873 145.644 291.599 137.891L291.409 130.15Z" fill="#CED2DF"/>
<path opacity="0.1" d="M310.601 128.807C310.601 128.807 319.706 135.7 331.86 136.495C333.19 136.578 334.461 137.067 335.5 137.895C338.566 140.479 341.164 143.564 343.181 147.017C348.088 154.998 360.137 154.112 360.137 154.112C360.137 154.112 371.852 150.457 372.521 147.597C372.521 147.597 372.856 163.233 380.222 159.455L370.534 170.544C369.923 171.244 369.174 171.813 368.334 172.215C367.493 172.618 366.579 172.845 365.647 172.883C362.006 173.026 355.683 173.072 350.344 172.042C342.309 170.492 336.511 166.726 332.273 170.048C332.273 170.048 326.698 187.334 330.489 193.543C334.28 199.752 340.984 210.163 337.855 212.828C334.726 215.493 330.935 215.265 324.691 208.841C318.446 202.417 317.771 191.555 317.771 191.555L319.332 163.631C319.332 163.631 313.31 142.573 307.525 138.365L310.601 128.807Z" fill="black"/>
<path opacity="0.1" d="M381.107 159.174L371.393 170.309C370.747 171.048 369.948 171.639 369.051 172.042C368.253 172.4 367.394 172.601 366.519 172.635C362.879 172.785 356.556 172.83 351.216 171.794C343.699 170.342 338.137 166.954 333.979 169.24C333.684 169.402 333.403 169.587 333.139 169.794C333.139 169.794 327.564 187.079 331.355 193.288C335.146 199.497 341.85 209.909 338.721 212.574C338.197 213.031 337.61 213.411 336.976 213.701C334.169 214.958 330.686 213.87 325.556 208.586C319.312 202.156 318.636 191.301 318.636 191.301L320.198 163.377C320.198 163.377 314.176 142.319 308.391 138.11L310.942 129.021C312.7 130.207 321.477 135.778 332.326 136.488C333.656 136.571 334.927 137.06 335.966 137.889C339.031 140.472 341.629 143.557 343.647 147.01C348.553 154.991 360.603 154.105 360.603 154.105C363.491 153.19 366.312 152.075 369.044 150.77C370.756 149.936 372.265 149.023 372.98 148.163C373.181 147.939 373.327 147.671 373.406 147.382C373.406 147.382 373.747 162.94 381.107 159.174Z" fill="black"/>
<path d="M380.661 159.397L370.953 170.545C370.419 171.157 369.78 171.669 369.064 172.056C368.147 172.551 367.128 172.83 366.086 172.871C362.446 173.021 356.123 173.066 350.783 172.03C343.535 170.63 338.098 167.424 333.998 169.255C333.53 169.457 333.089 169.718 332.686 170.03C332.686 170.03 327.111 187.315 330.902 193.524C334.693 199.733 341.397 210.145 338.268 212.81C337.864 213.156 337.424 213.459 336.956 213.715C334.07 215.299 330.502 214.367 325.091 208.822C318.846 202.392 318.171 191.537 318.171 191.537L319.732 163.613C319.732 163.613 313.71 142.555 307.925 138.346L310.601 128.814L310.923 129.036C312.681 130.222 321.457 135.792 332.306 136.502C333.636 136.585 334.907 137.075 335.946 137.903C339.011 140.487 341.609 143.572 343.627 147.025C348.534 155.006 360.583 154.12 360.583 154.12C363.472 153.205 366.292 152.09 369.025 150.784C371.052 149.755 372.704 148.627 372.96 147.598C372.96 147.598 372.96 147.8 372.96 148.158C373.157 150.849 374.141 162.727 380.661 159.397Z" fill="#CED2DF"/>
<path opacity="0.1" d="M308.122 118.064H291.724C292.084 120.654 292.188 123.273 292.032 125.883C294.535 127.632 297.471 128.672 300.524 128.89C303.577 129.108 306.632 128.497 309.362 127.121C307.787 124.228 306.83 120.944 308.122 118.064Z" fill="black"/>
<path d="M301.674 128.585C310.669 128.585 317.961 121.343 317.961 112.408C317.961 103.473 310.669 96.2305 301.674 96.2305C292.68 96.2305 285.388 103.473 285.388 112.408C285.388 121.343 292.68 128.585 301.674 128.585Z" fill="#EC8C9C"/>
<path opacity="0.1" d="M298.29 109.528C300.107 109.313 301.923 108.675 303.714 109.033C305.341 109.359 306.725 110.473 308.352 110.812C311.487 111.463 314.399 109.17 316.767 107.033L321.883 102.407C323.018 101.384 324.186 100.309 324.769 98.9016C325.353 97.4943 325.15 95.644 323.904 94.7579C322.034 93.4548 318.814 94.7579 317.462 92.9075C316.852 92.0736 316.944 90.9529 316.629 89.9561C315.973 87.9624 313.717 86.8744 311.605 86.8483C309.493 86.8222 307.473 87.591 305.452 88.1514C301.196 89.3776 296.747 89.7998 292.334 89.3958C291.143 89.1792 289.919 89.2214 288.746 89.5196C288.024 89.8257 287.384 90.2959 286.878 90.8922C286.373 91.4885 286.015 92.1944 285.834 92.9531C284.823 96.4975 286.549 102.211 288.28 105.384C290.012 108.557 294.833 109.952 298.29 109.528Z" fill="black"/>
<path d="M298.29 109.085C300.107 108.87 301.923 108.231 303.714 108.59C305.341 108.915 306.725 110.029 308.352 110.368C311.487 111.02 314.399 108.726 316.767 106.589L321.883 101.963C323.018 100.941 324.186 99.8655 324.769 98.4582C325.353 97.0509 325.15 95.2006 323.904 94.3145C322.034 93.0115 318.814 94.3145 317.462 92.4642C316.852 91.6302 316.944 90.5096 316.629 89.5127C315.973 87.5191 313.717 86.431 311.605 86.4049C309.493 86.3789 307.473 87.1477 305.452 87.708C301.196 88.9343 296.747 89.3564 292.334 88.9524C291.143 88.7358 289.919 88.7781 288.746 89.0762C288.024 89.3824 287.384 89.8525 286.878 90.4488C286.373 91.0452 286.015 91.7511 285.834 92.5098C284.823 96.0541 286.549 101.768 288.28 104.941C290.012 108.114 294.833 109.476 298.29 109.085Z" fill="#88455E"/>
<path opacity="0.1" d="M269.881 179.014C269.881 179.014 273.45 179.457 275.234 181.672C277.018 183.887 280.14 184.552 280.14 184.552" fill="black"/>
<path opacity="0.1" d="M237.748 149.754C237.748 149.754 240.66 156.211 238.863 156.862C237.065 157.514 237.748 162.179 237.748 162.179" fill="black"/>
<g opacity="0.1">
<path opacity="0.1" d="M238.751 147.539C238.751 147.539 257.714 143.774 258.37 143.774C261.426 143.774 266.346 139.526 269.16 136.841C270.016 136.027 271.068 135.446 272.216 135.154H271.974C271.047 135.125 270.124 135.279 269.258 135.608C268.392 135.937 267.601 136.434 266.93 137.069C264.116 139.754 259.19 144.002 256.14 144.002C255.608 144.002 243.474 146.393 238.548 147.363L238.751 147.539Z" fill="black"/>
<path opacity="0.1" d="M291.435 131.081V130.254C286.873 132.564 281.964 134.124 276.9 134.873C281.925 134.429 286.839 133.147 291.435 131.081Z" fill="black"/>
<path opacity="0.1" d="M267.986 216.686C267.986 216.686 265.31 208.04 267.33 203.61C269.35 199.18 271.79 178.787 271.79 178.787L266.897 163.717H257.497L256.927 163.938H264.634L269.521 179.015C269.521 179.015 267.067 199.408 265.06 203.838C263.053 208.268 265.716 216.914 265.716 216.914L283.341 216.263V216.126L267.986 216.686Z" fill="black"/>
</g>
<g opacity="0.1">
<path opacity="0.1" d="M338.491 209.266C338.087 209.612 337.647 209.915 337.18 210.171C334.294 211.754 330.725 210.823 325.314 205.278C320.355 200.177 318.912 192.248 318.525 189.244L318.394 191.538C318.394 191.538 319.05 202.399 325.314 208.823C330.725 214.387 334.294 215.299 337.18 213.716C337.647 213.459 338.087 213.156 338.491 212.81C339.429 212.009 339.482 210.504 338.99 208.627C338.868 208.871 338.699 209.088 338.491 209.266Z" fill="black"/>
<path opacity="0.1" d="M377.506 159.729L371.189 166.981C370.656 167.593 370.016 168.105 369.3 168.492C368.384 168.987 367.365 169.266 366.322 169.307C362.682 169.457 356.359 169.502 351.02 168.466C343.772 167.066 338.334 163.86 334.234 165.691C333.766 165.893 333.325 166.154 332.923 166.466C332.923 166.466 329.322 177.633 329.873 185.237C330.299 178.129 332.923 170.011 332.923 170.011C333.325 169.698 333.766 169.438 334.234 169.235C338.341 167.404 343.772 170.61 351.02 172.011C356.359 173.04 362.675 172.995 366.322 172.851C367.365 172.81 368.384 172.531 369.3 172.037C370.014 171.655 370.654 171.15 371.189 170.545L380.904 159.41C380.401 159.721 379.832 159.912 379.243 159.967C378.653 160.023 378.059 159.941 377.506 159.729Z" fill="black"/>
</g>
<path d="M92.2495 239.535C92.3274 239.61 92.4275 239.658 92.535 239.672C92.6425 239.686 92.7516 239.666 92.8464 239.613C92.6446 239.617 92.4435 239.591 92.2495 239.535Z" fill="url(#paint1_linear)"/>
<path d="M159.095 131.608C157.915 131.27 156.229 130.716 154.202 130.012C156.308 127.321 157.849 124.237 158.734 120.943L158.564 121.008C158.623 120.806 158.682 120.611 158.734 120.402C154.845 121.972 150.542 119.314 147.8 115.9C145.058 112.486 143.209 108.251 140.205 105.111C138.953 103.861 137.606 102.709 136.177 101.664C135.292 101.013 134.341 100.276 133.258 100.244C131.507 100.192 130.136 101.899 128.45 102.4C127.341 102.648 126.186 102.606 125.099 102.276C120.75 101.286 116.571 99.4553 112.131 98.9732C109.755 98.6818 107.344 98.9519 105.093 99.7616C102.863 100.602 101.846 102.276 100.042 103.619C98.0743 105.059 94.2306 105.026 91.9414 105.28C89.1635 105.595 86.3663 105.711 83.5717 105.625C81.9657 105.487 80.3487 105.546 78.7572 105.801C75.4317 106.524 72.762 109.15 70.2695 111.665C69.5892 112.234 69.0995 112.995 68.8658 113.848C68.8339 114.088 68.8339 114.331 68.8658 114.571C68.8407 115.228 68.9547 115.882 69.2004 116.493C69.9676 118.754 71.0518 120.897 72.421 122.858C73.4377 124.305 74.6249 125.666 75.2021 127.38C75.4757 128.222 75.6195 129.101 75.6284 129.986C75.6002 130.926 75.5015 131.862 75.3333 132.788C74.8932 135.346 74.1694 137.848 73.1753 140.248C72.5581 141.48 72.1335 142.798 71.9159 144.157C71.8972 144.434 71.8972 144.713 71.9159 144.991C71.7519 149.291 76.1204 152.386 76.9665 156.66C77.0361 157.014 77.0777 157.374 77.0912 157.735C76.9993 160.399 75.471 163.006 73.2146 164.042C73.4114 164.12 73.6148 164.185 73.8181 164.25C73.624 164.371 73.4225 164.48 73.2146 164.576C73.6279 164.732 74.0477 164.869 74.474 164.98C71.9096 167.198 69.7543 169.844 68.105 172.798C60.5159 186.832 9.1174 214.32 9.1174 214.32L9.87828 214.75L9.26171 215.148C4.81452 218.086 -5.62129 226.654 3.81095 237.488C3.81095 237.488 11.177 225.943 16.3392 221.024C16.5687 220.803 16.7983 220.601 16.9951 220.412C17.1085 220.585 17.1845 220.78 17.2184 220.984C17.2523 221.188 17.2432 221.397 17.1919 221.598L50.9853 202.736C50.9853 202.736 62.9953 194.383 66.3471 192.5C68.7062 191.04 71.2735 189.942 73.9624 189.243L73.5688 189.406C74.8324 189.06 76.135 188.876 77.4454 188.858C83.4274 188.95 89.908 193.302 92.0398 210.535C94.8996 233.612 93.5746 237.775 92.6563 238.342C92.5431 238.334 92.4311 238.314 92.3218 238.283C92.3502 238.308 92.3809 238.33 92.4136 238.349C92.2892 238.34 92.1661 238.318 92.0463 238.283C92.1124 238.344 92.1929 238.386 92.2802 238.407C92.3674 238.427 92.4586 238.425 92.5448 238.401C92.6069 238.419 92.6722 238.425 92.7366 238.417C92.801 238.409 92.863 238.388 92.9187 238.355C93.0694 238.364 93.2206 238.364 93.3713 238.355C93.3713 238.568 93.356 238.785 93.3254 239.007C93.2795 239.007 93.0564 239.13 93.3254 239.143C93.2532 240.446 93.2598 241.86 93.3254 243.339C90.354 243.502 87.3827 243.678 84.7983 243.834L85.0279 242.616L85.1328 242.069C87.4155 241.886 89.58 241.222 89.8358 239.384C90.3934 235.345 84.8114 233.188 80.0625 232.921C75.3136 232.654 46.8332 234.537 46.8332 234.537C46.8332 234.537 42.5631 240.029 56.1081 241.704C56.5104 241.912 56.928 242.13 57.3609 242.355C62.6673 245.359 69.8628 250.89 73.313 253.614L73.7919 253.992L72.2439 255.243C80.6201 257.126 88.7208 288.92 93.1876 303.456C97.6545 317.992 107.428 317.464 115.529 315.307C123.118 313.288 124.056 291.396 124.18 288.647V288.367L137.679 304.928L138.702 306.186C139.096 306.39 139.485 306.581 139.87 306.759C150.089 311.587 161.378 302.329 158.17 291.774C154.924 281.134 149.886 265.4 146.528 258.748C143.714 253.177 140.08 243.926 137.876 238.133C138.162 238.019 138.44 237.887 138.709 237.736C138.709 237.736 138.657 237.475 138.571 237L138.709 236.928C138.709 236.928 135.429 220.171 135.285 208.261C135.285 208.052 135.285 207.835 135.285 207.609C135.285 207.479 135.285 207.349 135.285 207.225C137.725 206.671 139.273 206.456 139.273 206.456L139.319 205.935L139.037 205.994L140.395 190.559C140.395 190.559 145.38 180.024 141.562 175.639C140.402 174.356 139.627 172.776 139.326 171.078C138.67 167.045 139.326 160.315 148.213 154.725C161.896 146.105 167.235 139.088 167.235 139.088C167.235 139.088 167.471 134.058 159.095 131.608ZM131.92 142.32V135.185C134.459 135.061 137.049 135.355 139.601 135.185C140.854 135.098 142.095 134.891 143.307 134.566L143.924 134.99C140.191 137.842 136.168 140.299 131.92 142.32ZM93.122 254.148C94.1256 254.839 95.1357 255.555 96.1262 256.279C96.7428 259.797 97.2872 262.279 97.3265 262.455C96.1946 259.559 94.7867 256.778 93.122 254.148Z" fill="url(#paint2_linear)"/>
<path d="M114.807 248.285L114.217 251.471L113.764 253.908L112.938 258.364L104.922 263.935C104.922 263.935 104.201 263.322 103.007 262.352C99.7272 259.667 92.8203 254.221 87.75 251.276C86.447 250.449 85.037 249.803 83.5586 249.354L114.807 248.285Z" fill="#FFBDC6"/>
<path opacity="0.1" d="M114.807 248.285L114.217 251.471C112.45 251.569 110.678 251.479 108.93 251.204L90.2294 251.471C89.3438 251.419 88.5174 251.347 87.7434 251.269C86.4404 250.443 85.0304 249.796 83.552 249.347L114.807 248.285Z" fill="black"/>
<path d="M108.93 250.682C108.93 250.682 118.283 252.272 118.815 248.291C119.346 244.311 114.007 242.213 109.474 241.913C104.942 241.613 77.675 243.516 77.675 243.516C77.675 243.516 72.8671 249.881 90.2295 250.943L108.93 250.682Z" fill="#7679B4"/>
<path opacity="0.1" d="M114.807 248.285L114.217 251.471L113.764 253.908L112.938 258.364L104.922 263.935C104.922 263.935 104.201 263.322 103.007 262.352C99.7272 259.667 92.8203 254.221 87.75 251.276C86.447 250.449 85.037 249.803 83.5586 249.354L114.807 248.285Z" fill="black"/>
<path opacity="0.1" d="M114.807 248.285L114.217 251.471C112.45 251.569 110.678 251.479 108.93 251.204L90.2294 251.471C89.3438 251.419 88.5174 251.347 87.7434 251.269C86.4404 250.443 85.0304 249.796 83.552 249.347L114.807 248.285Z" fill="black"/>
<path opacity="0.1" d="M108.93 250.682C108.93 250.682 118.283 252.272 118.815 248.291C119.346 244.311 114.007 242.213 109.474 241.913C104.942 241.613 77.675 243.516 77.675 243.516C77.675 243.516 72.8671 249.881 90.2295 250.943L108.93 250.682Z" fill="black"/>
<path d="M129.362 119.85H80.4758V177.432H129.362V119.85Z" fill="#A66477"/>
<path opacity="0.1" d="M129.362 119.85H80.4758V177.432H129.362V119.85Z" fill="black"/>
<path d="M23.1739 218.433C22.3671 218.635 21.3438 219.403 20.196 220.524C15.2568 225.371 8.21218 236.741 8.21218 236.741C-0.813387 226.069 9.17639 217.631 13.4596 214.732C14.496 214.028 15.1912 213.65 15.1912 213.65L23.1739 218.433Z" fill="#FFBDC6"/>
<path d="M114.276 138.027C114.276 138.027 116.683 154.746 124.961 158.726C133.239 162.707 114.276 170.135 114.276 170.135L88.3601 160.583C88.3601 160.583 103.053 155.808 100.114 141.741L114.276 138.027Z" fill="#FFBDC6"/>
<path d="M86.5169 238.598L85.9266 241.784L85.474 244.22L84.6475 248.677L76.6321 254.247C76.6321 254.247 75.9106 253.635 74.7168 252.664C71.4372 249.98 64.5302 244.533 59.4599 241.588C58.157 240.762 56.7469 240.115 55.2686 239.666L86.5169 238.598Z" fill="#FFBDC6"/>
<path opacity="0.1" d="M86.5169 238.598L85.9266 241.784C84.1598 241.881 82.3875 241.792 80.6398 241.517L61.9393 241.784C61.0538 241.732 60.2273 241.66 59.4533 241.582C58.1504 240.755 56.7403 240.109 55.262 239.66L86.5169 238.598Z" fill="black"/>
<path d="M80.6135 240.989C80.6135 240.989 89.9671 242.578 90.4984 238.598C91.0297 234.617 85.6904 232.493 81.1448 232.232C76.5993 231.972 49.352 233.822 49.352 233.822C49.352 233.822 44.5441 240.187 61.9065 241.249L80.6135 240.989Z" fill="#7679B4"/>
<path opacity="0.1" d="M85.4476 244.226L84.6212 248.683L76.6057 254.253C76.6057 254.253 75.8842 253.641 74.6904 252.67L85.2902 244.037L85.4476 244.226Z" fill="black"/>
<path d="M138.335 304.974C137.968 304.796 137.596 304.607 137.22 304.407L136.243 303.169L123.334 286.881V287.167C123.249 289.871 122.317 311.437 115.063 313.424C107.316 315.548 97.9627 316.076 93.6926 301.749C89.4226 287.422 81.6695 256.109 73.6541 254.252L85.5395 244.564C85.5395 244.564 93.4106 253.685 96.6246 262.468C96.5066 261.908 91.0689 236.687 95.5555 232.23H134.557C134.557 232.23 140.565 249.261 144.711 257.705C147.925 264.26 152.746 279.753 155.861 290.236C158.944 300.609 148.174 309.73 138.335 304.974Z" fill="#7679B4"/>
<path opacity="0.1" d="M137.246 237C131.232 240.538 104.785 239.098 96.1657 238.525L93.824 238.356C93.5682 238.356 93.8634 238.212 93.8634 238.212L94.1061 235.802L100.514 219.618L134.846 199.863C134.15 201.942 133.914 205.128 133.973 208.783C134.144 220.497 137.246 237 137.246 237Z" fill="black"/>
<path d="M137.246 236.212C131.231 239.75 104.784 238.31 96.1654 237.737L93.8238 237.567H93.4368L93.8631 237.456L95.9752 236.903L100.514 218.855L134.845 199.088C134.15 201.166 133.914 204.352 133.973 208.007C134.144 219.702 137.246 236.212 137.246 236.212Z" fill="#F2F1F2"/>
<path opacity="0.1" d="M133.973 207.981C126.994 209.578 111.632 214.275 105.729 225.573C101.794 233.117 98.5139 236.355 96.1722 237.711L93.8306 237.541L93.8699 237.398L95.982 236.844L100.521 218.797L134.852 199.029C134.144 201.166 133.914 204.326 133.973 207.981Z" fill="black"/>
<path opacity="0.1" d="M15.1584 213.656L23.1738 218.432C22.367 218.634 21.3438 219.403 20.1959 220.523C19.54 218.569 15.3289 215.884 13.4268 214.738C14.4631 214.034 15.1584 213.656 15.1584 213.656Z" fill="black"/>
<path opacity="0.1" d="M92.4203 237.874C92.3309 237.924 92.2279 237.944 92.1264 237.931C92.0249 237.918 91.9302 237.873 91.8562 237.803C92.0396 237.854 92.2297 237.878 92.4203 237.874Z" fill="black"/>
<path d="M110.53 157.664C110.53 157.664 103.315 158.459 98.2382 153.155C98.2382 153.155 76.8681 159.26 69.6529 173.059C62.4377 186.859 13.2825 213.923 13.2825 213.923C13.2825 213.923 21.8095 218.699 21.029 221.09L53.3531 202.515C53.3531 202.515 64.8384 194.286 68.0459 192.429C71.2533 190.573 88.8847 179.164 92.6235 210.21C96.3623 241.255 92.6235 237.574 92.6235 237.574C92.6235 237.574 97.9693 239.431 105.742 224.543C113.515 209.656 137.535 206.235 137.535 206.235L138.847 190.599C138.847 190.599 143.615 180.226 139.962 175.9C138.848 174.627 138.108 173.074 137.823 171.411C137.213 167.437 137.823 160.811 146.35 155.305C159.469 146.835 164.52 139.916 164.52 139.916C164.52 139.916 164.789 134.873 156.773 132.489C148.758 130.104 116.165 117.1 116.165 117.1L115.096 121.608L140.742 139.656C140.742 139.656 127.919 150.002 117.785 149.741C117.746 149.696 119.615 157.397 110.53 157.664Z" fill="#565388"/>
<path opacity="0.1" d="M115.483 145.304C114.851 143.166 114.358 140.99 114.007 138.789L99.8453 142.529C100.465 145.213 100.354 148.013 99.5239 150.64C102.418 151.407 105.476 151.31 108.314 150.359C111.153 149.409 113.646 147.648 115.483 145.298V145.304Z" fill="black"/>
<path d="M103.722 150.366C112.134 150.366 118.952 143.593 118.952 135.238C118.952 126.883 112.134 120.109 103.722 120.109C95.3102 120.109 88.4912 126.883 88.4912 135.238C88.4912 143.593 95.3102 150.366 103.722 150.366Z" fill="#FFBDC6"/>
<path opacity="0.1" d="M111.816 100.831C116.04 101.306 120.061 103.111 124.22 104.088C125.259 104.412 126.366 104.455 127.427 104.212C129.041 103.717 130.353 102.036 132.019 102.088C133.048 102.088 133.986 102.818 134.813 103.489C136.182 104.521 137.469 105.656 138.663 106.883C141.53 109.978 143.314 114.148 145.931 117.51C148.548 120.872 152.674 123.491 156.393 121.947C153.868 131.72 145.577 139.193 136.617 139.799C133.042 140.04 129.402 139.303 125.919 140.346C125.055 140.695 124.145 140.915 123.216 140.997C121.248 140.997 119.622 139.18 118.375 137.414C115.463 133.257 113.128 128.54 109.848 124.755C108.766 123.504 107.487 122.312 105.959 122.084C104.43 121.856 103.02 122.579 101.656 123.282C99.4059 124.442 97.1036 125.641 95.3589 127.622C93.6141 129.602 92.5121 132.567 93.2336 135.251C93.6206 136.697 94.5127 138 94.5455 139.518C94.5455 141.929 92.4334 143.695 92.0071 146.034C91.9131 147.021 91.8781 148.013 91.9021 149.005C91.7119 152.223 89.5998 154.869 87.3828 156.882C86.5235 157.67 85.5658 158.511 85.3166 159.729C85.146 160.556 85.3166 161.436 85.2051 162.276C84.8837 164.368 82.7847 165.423 80.9284 165.697C78.7604 166.013 76.547 165.752 74.5135 164.941C77.1372 163.723 78.7048 160.25 78.1014 157.123C77.2749 152.816 72.9196 149.728 73.2869 145.337C73.4923 143.992 73.8991 142.685 74.4938 141.46C75.4443 139.091 76.1348 136.627 76.5534 134.111C76.9825 132.174 76.9398 130.164 76.4288 128.247C75.8712 126.56 74.7365 125.217 73.7657 123.791C72.451 121.851 71.4135 119.739 70.6828 117.516C70.4181 116.859 70.3168 116.149 70.3877 115.444C70.5992 114.614 71.0561 113.865 71.6995 113.294C74.0871 110.812 76.6452 108.226 79.8199 107.509C81.3368 107.258 82.8796 107.199 84.4114 107.333C87.0858 107.417 89.7628 107.304 92.4203 106.994C94.6111 106.74 98.3236 106.773 100.173 105.352C101.898 104.049 102.876 102.388 105.008 101.554C107.183 100.763 109.521 100.514 111.816 100.831Z" fill="black"/>
<path opacity="0.1" d="M120.284 257.041C120.284 257.041 129.1 274.287 126.43 279.597L120.284 257.041Z" fill="black"/>
<path opacity="0.1" d="M136.269 303.169L123.36 286.881V287.167C123.36 287.167 122.613 281.903 125.072 283.675C130.457 287.545 139.076 293.891 139.26 294.986C139.444 296.08 137.515 300.472 136.269 303.169Z" fill="black"/>
<g opacity="0.1">
<path opacity="0.1" d="M118.002 149.695C118.002 149.695 119.09 154.178 115.568 156.419C120.993 155.494 121.229 151.305 121.065 149.48C120.052 149.643 119.027 149.715 118.002 149.695Z" fill="black"/>
<path opacity="0.1" d="M16.4966 212.861C16.4966 212.861 65.6518 185.797 72.867 171.998C78.0423 162.094 90.5115 156.159 97.1364 153.592C92.3022 155.201 76.0352 161.371 69.9219 173.059C62.7067 186.859 13.5515 213.923 13.5515 213.923L16.4966 212.861Z" fill="black"/>
<path opacity="0.1" d="M127.565 147.592C135.928 144.986 143.924 138.555 143.924 138.555L118.277 120.508L118.861 118.032L116.408 117.055L115.338 121.563L140.985 139.611C136.87 142.824 132.36 145.506 127.565 147.592Z" fill="black"/>
<path opacity="0.1" d="M127.729 208.745C131.006 207.634 134.369 206.791 137.784 206.224L137.83 205.709C134.389 206.46 131.012 207.475 127.729 208.745Z" fill="black"/>
<path opacity="0.1" d="M96.6445 236.546H96.4083C96.3189 236.595 96.2159 236.615 96.1144 236.602C96.0129 236.589 95.9182 236.544 95.8442 236.474C96.0278 236.525 96.2178 236.549 96.4083 236.546C97.2873 236.037 98.6057 232.076 95.8442 209.142C92.8926 184.658 81.3089 186.58 74.9661 189.394C81.4466 187.622 90.3672 189.153 92.9057 210.204C95.6671 233.138 94.3487 237.106 93.4698 237.608C94.609 237.565 95.7117 237.197 96.6445 236.546Z" fill="black"/>
<path opacity="0.1" d="M93.4696 237.615C93.2791 237.618 93.0891 237.594 92.9055 237.543C92.9795 237.613 93.0742 237.658 93.1757 237.671C93.2772 237.684 93.3802 237.664 93.4696 237.615Z" fill="black"/>
</g>
<path d="M111.816 100.317C116.04 100.793 120.061 102.597 124.22 103.575C125.259 103.898 126.366 103.941 127.427 103.698C129.041 103.203 130.353 101.522 132.019 101.574C133.048 101.574 133.986 102.304 134.813 102.975C136.182 104.007 137.469 105.142 138.663 106.37C141.53 109.464 143.314 113.634 145.931 116.996C148.548 120.358 152.674 122.977 156.393 121.433C153.868 131.206 145.577 138.679 136.617 139.285C133.042 139.526 129.402 138.79 125.919 139.832C125.055 140.182 124.145 140.401 123.216 140.484C121.248 140.484 119.622 138.666 118.375 136.9C115.463 132.744 113.128 128.027 109.848 124.241C108.766 122.99 107.487 121.798 105.959 121.57C104.43 121.342 103.02 122.065 101.656 122.769C99.4059 123.928 97.1036 125.127 95.3589 127.108C93.6141 129.089 92.5121 132.053 93.2336 134.737C93.6206 136.184 94.5127 137.487 94.5455 139.005C94.5455 141.415 92.4334 143.181 92.0071 145.52C91.9131 146.508 91.8781 147.5 91.9021 148.491C91.7119 151.71 89.5998 154.355 87.3828 156.368C86.5235 157.156 85.5658 157.997 85.3166 159.215C85.146 160.043 85.3166 160.922 85.2051 161.763C84.8837 163.854 82.7847 164.91 80.9284 165.183C78.7604 165.499 76.547 165.238 74.5135 164.427C77.1372 163.209 78.7048 159.736 78.1014 156.609C77.2749 152.303 72.9196 149.214 73.2869 144.823C73.4923 143.478 73.8991 142.172 74.4938 140.946C75.4443 138.577 76.1348 136.113 76.5534 133.597C76.9825 131.661 76.9398 129.65 76.4288 127.733C75.8712 126.046 74.7365 124.704 73.7657 123.277C72.451 121.337 71.4135 119.226 70.6828 117.003C70.4181 116.346 70.3168 115.635 70.3877 114.931C70.5992 114.1 71.0561 113.351 71.6995 112.781C74.0871 110.298 76.6452 107.712 79.8199 106.995C81.3368 106.744 82.8796 106.685 84.4114 106.819C87.0858 106.904 89.7628 106.791 92.4203 106.48C94.6111 106.226 98.3236 106.259 100.173 104.839C101.898 103.536 102.876 101.874 105.008 101.04C107.183 100.249 109.521 100.001 111.816 100.317Z" fill="#A66477"/>
<path d="M546.716 66.3577C546.716 66.273 546.716 66.1948 546.716 66.1166C546.716 66.0385 546.716 65.9472 546.676 65.8691H546.571C546.571 65.6931 546.571 65.5172 546.571 65.3283C546.309 59.2886 537.9 46.4339 534.529 50.1867C531.577 53.4835 536.031 61.8231 538.3 65.5759L538.503 65.9147L538.392 65.843C538.392 65.843 529.006 93.6503 527.897 94.7318C526.789 95.8134 519.062 117.679 508.875 120.141C506.861 120.617 505.189 121.047 503.785 121.445L503.897 121.073C504.553 118.943 505.359 116.929 505.687 114.558C506.015 112.186 505.687 109.313 504.48 108.16C503.89 107.587 503.169 107.508 502.683 106.596C502.368 105.796 502.199 104.947 502.185 104.088L501.319 93.546L501.922 93.3636C505.569 92.2039 509.105 89.4544 509.518 85.7537C509.391 85.8016 509.262 85.8429 509.131 85.8775C509.179 85.6623 509.216 85.4449 509.242 85.226C506.179 86.4248 503.339 83.2714 500.387 81.8576C495.527 79.4925 489.971 81.7208 484.954 82.2615C479.267 82.8805 473.868 80.535 468.057 80.9585C464.895 81.1996 461.379 83.3301 461.55 86.4248C461.648 88.1253 462.862 89.5652 463.36 91.194C464.62 95.1358 461.819 99.0906 459.366 102.452C457.752 104.661 456.204 107.352 455.929 109.945C450.281 104.081 444.175 97.3054 443.466 94.7579L427.127 66.9506C427.127 66.9506 426.74 67.3611 426.117 67.967C426.018 67.6673 425.9 67.3155 425.769 66.9636C423.683 61.1585 417.78 47.092 410.296 49.672C402.812 52.2521 413.398 66.6704 418.003 72.4169L418.659 73.2118C418.273 73.306 417.867 73.2879 417.491 73.1597L435.713 104.205C435.713 104.205 439.025 110.147 442.062 111.763C442.062 111.763 464.698 140.111 464.974 145.779C465.249 151.447 475.154 166.57 475.154 166.57C475.154 166.57 478.466 191.139 472.668 195.458H472.74H472.786H472.858H472.924H473.055H473.14H473.226H473.337H473.429H473.56H473.626C473.35 195.725 473.068 196.019 472.78 196.338C468.483 201.068 462.993 211.206 470.497 228.445C481.536 253.855 483.196 263.81 483.196 263.81C483.196 263.81 462.206 264.892 458.074 265.7C454.414 266.416 440.186 266.918 436.933 267.003C435.772 265.661 432.342 262.69 427.711 267.003C421.912 272.404 417.773 290.458 417.773 290.458C417.773 290.458 415.563 305.039 423.021 301.254C423.021 301.254 431.856 289.103 434.336 288.562C435.569 288.295 436.874 286.49 437.871 284.75L437.924 284.783C437.983 284.783 438.225 284.653 438.619 284.496C440.455 283.773 445.513 282.034 449.501 282.9C451.685 283.376 461.052 283.487 470.871 283.46C468.654 288.738 464.679 302.355 464.679 302.355C464.679 302.355 463.019 315.053 468.529 314.532C472.465 314.148 478.499 304.16 481.648 298.459C483.93 296.797 490.47 290.842 495.304 291.292L527.877 278.874C527.877 278.874 535.604 274.554 531.465 260.246C528.186 248.871 518.852 225.585 515.166 216.509L515.054 216.275C514.162 214.079 513.624 212.776 513.624 212.776C512.11 208.633 511.116 204.32 510.666 199.934C510.633 199.589 510.607 199.237 510.581 198.892C511.037 198.702 511.467 198.454 511.86 198.156C511.86 198.156 508.823 167.651 511.86 164.406L511.912 164.348V164.309L511.965 164.244L512.083 164.094L512.227 163.911C512.391 163.696 512.588 163.429 512.811 163.103C514.549 160.575 517.789 154.803 516.858 147.988C516.818 147.693 516.77 147.395 516.714 147.095C516.357 145.247 515.72 143.463 514.824 141.805C514.693 141.114 514.612 140.415 514.582 139.713C514.582 139.316 514.582 138.879 514.582 138.41V138.332C514.582 138.206 514.582 138.08 514.582 137.954V137.863C514.582 137.557 514.634 137.212 514.68 136.925V136.808C514.68 136.69 514.7 136.571 514.739 136.449V136.299C514.739 136.182 514.792 136.065 514.818 135.948V135.824C514.857 135.667 514.897 135.511 514.949 135.355V135.277C514.988 135.146 515.032 135.018 515.08 134.892L515.139 134.742L515.27 134.43L515.336 134.273C515.389 134.156 515.448 134.039 515.507 133.921L515.553 133.824C515.631 133.68 515.714 133.539 515.802 133.4L515.874 133.289L516.09 132.983L516.195 132.846L516.425 132.573L516.53 132.455C516.648 132.332 516.766 132.208 516.897 132.091C520.485 128.833 536.496 104.824 536.496 104.824C536.496 104.824 540.36 99.4228 540.36 95.9176C540.576 95.8394 547.404 73.2313 546.716 66.3577ZM503.733 268.169C503.339 264.468 502.946 259.882 502.585 255.138L508.829 264.807C508.829 264.807 508.239 267.752 503.733 268.169Z" fill="url(#paint3_linear)"/>
<path d="M438.625 266.123C438.625 266.123 434.887 260.26 429.272 265.596C423.657 270.932 419.656 288.679 419.656 288.679C419.656 288.679 417.518 303.013 424.733 299.293C424.733 299.293 433.26 287.35 435.687 286.822C438.114 286.295 440.764 279.656 440.764 279.656L438.625 266.123Z" fill="#493545"/>
<path d="M478.696 280.451C478.696 280.451 473.619 278.06 472.018 279.923C470.418 281.787 465.072 300.355 465.072 300.355C465.072 300.355 463.472 312.565 468.811 312.031C474.15 311.497 483.504 292.381 483.504 292.381L478.696 280.451Z" fill="#493545"/>
<path opacity="0.05" d="M478.696 280.451C478.696 280.451 473.619 278.06 472.018 279.923C470.418 281.787 465.072 300.355 465.072 300.355C465.072 300.355 463.472 312.565 468.811 312.031C474.15 311.497 483.504 292.381 483.504 292.381L478.696 280.451Z" fill="black"/>
<path d="M496.327 244.362L507.813 262.142C507.813 262.142 507.012 266.123 500.066 265.328L476.289 280.19C476.289 280.19 474.223 298.283 480.828 296.641C481.897 296.374 489.355 288.679 494.72 289.213L526.251 277.004C526.251 277.004 533.728 272.756 529.721 258.696C525.713 244.636 512.463 212.033 512.463 212.033L491.519 223.67L496.327 244.362Z" fill="#3E3D77"/>
<path opacity="0.05" d="M496.327 244.362L507.813 262.142C507.813 262.142 507.012 266.123 500.066 265.328L476.289 280.19C476.289 280.19 474.223 298.283 480.828 296.641C481.897 296.374 489.355 288.679 494.72 289.213L526.251 277.004C526.251 277.004 533.728 272.756 529.721 258.696C525.713 244.636 512.463 212.033 512.463 212.033L491.519 223.67L496.327 244.362Z" fill="black"/>
<path d="M503.542 270.633C505.143 280.719 496.065 281.514 496.065 281.514C496.065 281.514 455.188 282.309 450.38 281.247C445.572 280.185 439.157 283.103 439.157 283.103C430.872 278.061 437.556 265.59 437.556 265.59C437.556 265.59 454.656 265.063 458.664 264.287C462.672 263.512 482.973 262.411 482.973 262.411C482.973 262.411 481.372 252.592 470.681 227.652C463.419 210.712 468.713 200.744 472.891 196.098C473.957 194.865 475.191 193.787 476.558 192.893L509.42 194.482C509.384 196.128 509.446 197.775 509.603 199.414C510.165 205.042 511.638 210.542 513.965 215.703C512.096 215.703 500.073 226.85 500.073 226.85C500.073 226.85 501.935 260.554 503.542 270.633Z" fill="#3E3D77"/>
<path opacity="0.1" d="M439.957 266.652C439.957 266.652 457.057 266.125 461.065 265.349C465.072 264.574 485.373 263.492 485.373 263.492C485.373 263.492 483.773 253.674 473.081 228.733C465.82 211.793 471.114 201.825 475.292 197.18C476.358 195.947 477.592 194.868 478.958 193.974L509.407 195.447C509.407 195.134 509.407 194.795 509.407 194.502L476.545 192.912C475.178 193.806 473.944 194.885 472.878 196.118C468.719 200.77 463.406 210.731 470.668 227.671C481.385 252.592 482.973 262.411 482.973 262.411C482.973 262.411 462.639 263.473 458.664 264.268C454.689 265.063 437.556 265.571 437.556 265.571C437.556 265.571 430.879 278.048 439.157 283.11C439.157 283.11 439.406 282.993 439.813 282.823C434.309 277.201 439.957 266.652 439.957 266.652Z" fill="black"/>
<path d="M488.843 95.4941H472.281V137.153H488.843V95.4941Z" fill="#493545"/>
<path opacity="0.1" d="M488.843 95.4941H472.281V137.153H488.843V95.4941Z" fill="black"/>
<path d="M498.315 89.3829C498.885 89.5392 499.528 89.5588 499.915 90.3406C500.156 90.9655 500.286 91.6265 500.302 92.2952L501.345 105.169C501.36 106.012 501.524 106.846 501.831 107.632C502.27 108.505 502.998 108.61 503.569 109.17C504.717 110.303 505.051 113.144 504.736 115.457C504.421 117.77 503.628 119.751 503.005 121.842C502.113 124.839 501.522 128.208 500.269 130.735C499.017 133.263 496.741 134.645 495.271 132.521C493.802 130.397 493.999 126.11 493.723 122.598C493.264 116.734 490.962 111.678 490.804 105.775C490.673 101 491.965 96.5432 492.772 92.0151C493.349 88.9073 493.382 85.1349 494.222 82.3398C494.924 85.6626 496.262 88.8226 498.315 89.3829Z" fill="#493545"/>
<path opacity="0.1" d="M498.315 89.3829C498.885 89.5392 499.528 89.5588 499.915 90.3406C500.156 90.9655 500.286 91.6265 500.302 92.2952L501.345 105.169C501.36 106.012 501.524 106.846 501.831 107.632C502.27 108.505 502.998 108.61 503.569 109.17C504.717 110.303 505.051 113.144 504.736 115.457C504.421 117.77 503.628 119.751 503.005 121.842C502.113 124.839 501.522 128.208 500.269 130.735C499.017 133.263 496.741 134.645 495.271 132.521C493.802 130.397 493.999 126.11 493.723 122.598C493.264 116.734 490.962 111.678 490.804 105.775C490.673 101 491.965 96.5432 492.772 92.0151C493.349 88.9073 493.382 85.1349 494.222 82.3398C494.924 85.6626 496.262 88.8226 498.315 89.3829Z" fill="black"/>
<path d="M428.203 71.0827L421.794 76.3927C421.794 76.3927 421.034 75.5066 419.899 74.0732C415.445 68.4244 405.206 54.2537 412.441 51.7192C419.676 49.1848 425.395 63.0037 427.416 68.7111C427.927 70.1575 428.203 71.0827 428.203 71.0827Z" fill="#C77485"/>
<path d="M543.882 69.2241C541.212 73.205 537.474 69.2241 537.474 69.2241C537.474 69.2241 536.995 68.514 536.319 67.3673C534.122 63.6731 529.812 55.4834 532.666 52.2387C535.945 48.5315 544.072 61.1842 544.322 67.1197C544.399 67.8495 544.245 68.585 543.882 69.2241Z" fill="#C77485"/>
<path d="M478.158 112.212C478.158 112.212 483.504 129.198 481.897 134.234C480.29 139.27 493.389 145.134 493.389 145.134H508.351C508.351 145.134 513.696 134.254 512.358 131.068C511.02 127.882 499.535 125.497 499.535 125.497C499.535 125.497 492.858 125.497 493.126 107.717L478.158 112.212Z" fill="#C77485"/>
<path opacity="0.1" d="M428.203 71.0825L421.794 76.3925C421.794 76.3925 421.033 75.5064 419.899 74.073C422.227 73.6626 425.841 70.2876 427.422 68.7109C427.927 70.1573 428.203 71.0825 428.203 71.0825Z" fill="black"/>
<path opacity="0.1" d="M543.882 69.2256C541.213 73.2064 537.474 69.2256 537.474 69.2256C537.474 69.2256 536.995 68.5154 536.319 67.3687L536.405 67.1016C538.136 68.333 543.521 67.284 544.322 67.1016C544.403 67.8378 544.249 68.5809 543.882 69.2256Z" fill="black"/>
<path opacity="0.1" d="M509.59 199.407C501.325 203.154 474.472 196.482 472.858 196.084C473.924 194.852 475.158 193.773 476.525 192.879L509.387 194.469C509.358 196.117 509.426 197.766 509.59 199.407Z" fill="black"/>
<path d="M481.635 126.807C481.635 126.807 475.226 128.931 466.142 120.702C466.142 120.702 445.808 100.798 444.496 96.0219L428.754 68.6576C428.754 68.6576 422.076 75.8245 419.4 74.7625L437.031 105.28C437.031 105.28 440.239 111.144 443.178 112.708C443.178 112.708 465.085 140.573 465.348 146.144C465.61 151.715 475.22 166.635 475.22 166.635C475.22 166.635 478.427 190.78 472.812 195.028C472.812 195.028 504.067 202.99 510.745 197.68C510.745 197.68 507.806 167.71 510.745 164.511C510.745 164.511 519.829 153.897 513.683 142.222C513.683 142.222 512.371 135.856 515.821 132.67C519.272 129.484 534.791 105.867 534.791 105.867C534.791 105.867 538.53 100.557 538.53 97.11C538.53 97.11 545.476 73.7591 544.433 67.6543C544.433 67.6543 538.287 68.9574 536.418 67.6543C536.418 67.6543 527.333 95.0185 526.264 96.048C525.195 97.0774 517.737 118.604 507.832 120.995C497.928 123.386 496.347 124.442 496.347 124.442C496.347 124.442 515.579 136.384 506.232 141.688C496.885 146.991 481.635 126.807 481.635 126.807Z" fill="#FFAAC4"/>
<path opacity="0.1" d="M493.776 116.298C493.458 113.798 493.329 111.279 493.389 108.76L478.427 113.268C478.821 114.258 479.134 115.278 479.365 116.317C481.077 117.067 483.386 118.839 485.373 118.839C488.38 118.937 491.334 118.043 493.776 116.298Z" fill="black"/>
<path d="M485.104 118.05C492.777 118.05 498.997 111.872 498.997 104.251C498.997 96.6294 492.777 90.4512 485.104 90.4512C477.432 90.4512 471.212 96.6294 471.212 104.251C471.212 111.872 477.432 118.05 485.104 118.05Z" fill="#C77485"/>
<path opacity="0.1" d="M468.575 82.9912C465.518 83.2258 462.108 85.3237 462.278 88.3663C462.37 90.0408 463.524 91.4546 464.029 93.0574C465.243 96.934 462.541 100.824 460.166 104.133C457.792 107.443 455.575 111.828 457.608 115.333C458.188 116.177 458.814 116.988 459.484 117.763C461.996 121.132 461.963 125.679 463.078 129.725C464.502 134.902 467.869 139.339 472.485 142.127C477.101 144.914 482.617 145.838 487.899 144.711C485.91 142.19 484.919 139.034 485.111 135.837C485.262 133.517 486.016 131.094 485.111 128.95C483.943 126.194 480.519 125.106 478.755 122.695C476.991 120.285 477.109 116.942 477.961 114.069C478.814 111.196 480.29 108.531 480.998 105.599C481.173 104.744 481.392 103.898 481.654 103.065C482.887 99.5857 486.574 97.5659 490.181 96.6994C493.789 95.8329 497.58 95.7807 501.102 94.6406C504.625 93.5004 508.049 90.8291 508.455 87.161C505.491 88.3403 502.742 85.2651 499.882 83.8512C495.173 81.5318 489.801 83.7144 484.947 84.2487C479.418 84.8611 474.17 82.5873 468.575 82.9912Z" fill="black"/>
<path d="M468.306 82.4639C465.249 82.6984 461.839 84.7963 462.009 87.839C462.101 89.5134 463.255 90.9272 463.76 92.53C464.974 96.4066 462.271 100.296 459.897 103.606C457.523 106.916 455.306 111.301 457.339 114.806C457.918 115.65 458.545 116.461 459.215 117.236C461.727 120.604 461.694 125.152 462.809 129.198C464.233 134.374 467.599 138.812 472.216 141.599C476.832 144.386 482.348 145.311 487.63 144.183C485.641 141.662 484.65 138.506 484.842 135.309C484.993 132.99 485.747 130.566 484.842 128.423C483.674 125.667 480.25 124.579 478.486 122.168C476.722 119.757 476.84 116.415 477.692 113.542C478.545 110.669 480.021 108.004 480.729 105.072C480.904 104.217 481.123 103.371 481.385 102.537C482.618 99.0583 486.305 97.0386 489.912 96.1721C493.52 95.3055 497.311 95.2534 500.833 94.1132C504.356 92.973 507.78 90.3018 508.186 86.6337C505.222 87.8129 502.473 84.7377 499.613 83.3239C494.904 81.0044 489.532 83.1871 484.678 83.7213C479.162 84.3272 473.934 82.0273 468.306 82.4639Z" fill="#493545"/>
<path opacity="0.1" d="M498.866 134.906C498.866 134.906 504.428 139.838 505.523 142.014L498.866 134.906Z" fill="black"/>
<path opacity="0.1" d="M510.902 164.361C510.902 164.361 503.956 164.361 500.748 165.156C497.541 165.951 489.794 165.156 489.794 165.156" fill="black"/>
<g opacity="0.1">
<path opacity="0.1" d="M506.212 141.668C505.613 142.008 504.965 142.254 504.29 142.398C506.033 142.781 507.856 142.522 509.42 141.668C518.773 136.358 499.535 124.422 499.535 124.422H496.327C496.327 124.422 515.566 136.364 506.212 141.668Z" fill="black"/>
<path opacity="0.1" d="M544.479 68.1169C544.479 67.9475 544.44 67.7846 544.413 67.6348C543.315 67.8609 542.205 68.0284 541.088 68.1364C542.215 68.2596 543.353 68.253 544.479 68.1169Z" fill="black"/>
<path opacity="0.1" d="M476.026 195.008C481.635 190.76 478.434 166.614 478.434 166.614C478.434 166.614 468.818 151.753 468.549 146.182C468.28 140.612 446.378 112.746 446.378 112.746C443.44 111.156 440.232 105.318 440.232 105.318C440.232 105.318 422.063 75.8628 419.394 74.8008L437.025 105.318C437.025 105.318 440.232 111.182 443.171 112.746C443.171 112.746 465.079 140.612 465.341 146.182C465.604 151.753 475.22 166.634 475.22 166.634C475.22 166.634 478.427 190.78 472.812 195.028C472.812 195.028 492.024 199.921 503.543 199.478C491.998 199.074 476.026 195.008 476.026 195.008Z" fill="black"/>
<path opacity="0.1" d="M481.792 127.014L481.634 126.812C481.452 126.866 481.265 126.908 481.077 126.936C481.326 126.969 481.562 126.995 481.792 127.014Z" fill="black"/>
</g>
<g opacity="0.1">
<path opacity="0.1" d="M544.413 67.6035L544.249 67.6361C543.967 75.7867 538.274 94.9352 538.274 94.9352C538.274 98.3818 534.535 103.692 534.535 103.692C534.535 103.692 519.042 127.31 515.566 130.496C512.089 133.682 513.427 140.047 513.427 140.047L513.46 140.112C513.355 137.969 513.617 134.646 515.828 132.613C519.298 129.427 534.797 105.809 534.797 105.809C534.797 105.809 538.536 100.499 538.536 97.0527C538.536 97.0918 545.482 73.7409 544.413 67.6035Z" fill="black"/>
<path opacity="0.1" d="M510.489 162.368C510.889 164.622 510.62 162.238 510.758 164.492C510.758 164.492 517.317 156.85 515.526 147.402C516.064 155.846 510.489 162.368 510.489 162.368Z" fill="black"/>
</g>
<path opacity="0.1" d="M308.148 431C463.075 431 588.669 419.017 588.669 404.236C588.669 389.454 463.075 377.471 308.148 377.471C153.221 377.471 27.6277 389.454 27.6277 404.236C27.6277 419.017 153.221 431 308.148 431Z" fill="#311B92"/>
<path d="M199.409 377.08C199.409 377.08 189.858 344.861 201.199 321.152C206.023 311.237 207.477 300.034 205.345 289.227C204.291 284.105 202.768 279.089 200.793 274.242" stroke="#535461" stroke-width="2" stroke-miterlimit="10"/>
<path d="M207.863 259.27C207.863 263.218 200.648 274.666 200.648 274.666C200.648 274.666 193.433 263.218 193.433 259.27C193.36 258.287 193.491 257.299 193.82 256.369C194.148 255.439 194.666 254.586 195.342 253.864C196.017 253.142 196.835 252.566 197.745 252.172C198.654 251.778 199.636 251.574 200.629 251.574C201.621 251.574 202.603 251.778 203.512 252.172C204.422 252.566 205.24 253.142 205.915 253.864C206.591 254.586 207.109 255.439 207.437 256.369C207.766 257.299 207.897 258.287 207.824 259.27H207.863Z" fill="#311B92"/>
<path d="M219.742 281.135C217.584 284.451 205.279 290.172 205.279 290.172C205.279 290.172 205.502 276.679 207.66 273.362C208.139 272.501 208.791 271.748 209.575 271.148C210.36 270.548 211.26 270.115 212.221 269.875C213.181 269.636 214.181 269.596 215.158 269.757C216.134 269.918 217.067 270.277 217.898 270.812C218.729 271.346 219.441 272.045 219.988 272.865C220.536 273.684 220.907 274.607 221.08 275.575C221.253 276.543 221.224 277.537 220.994 278.493C220.763 279.45 220.337 280.349 219.742 281.135Z" fill="#311B92"/>
<path d="M219.224 318.513C215.675 320.292 202.17 319.06 202.17 319.06C202.17 319.06 209.221 307.522 212.77 305.743C213.62 305.236 214.567 304.908 215.551 304.781C216.535 304.653 217.535 304.729 218.488 305.003C219.441 305.277 220.327 305.743 221.091 306.372C221.854 307.001 222.479 307.78 222.926 308.66C223.373 309.54 223.632 310.502 223.688 311.486C223.743 312.47 223.594 313.455 223.249 314.379C222.904 315.303 222.371 316.147 221.683 316.857C220.995 317.567 220.167 318.129 219.25 318.507L219.224 318.513Z" fill="#311B92"/>
<path d="M212.422 346.698C209.228 349.043 195.676 350.105 195.676 350.105C195.676 350.105 200.661 337.55 203.862 335.198C205.403 334.269 207.238 333.945 209.006 334.292C210.774 334.638 212.348 335.63 213.417 337.071C214.487 338.513 214.974 340.299 214.784 342.08C214.594 343.86 213.739 345.505 212.389 346.691L212.422 346.698Z" fill="#311B92"/>
<path d="M190.153 290.94C193.007 293.689 206.289 296.543 206.289 296.543C206.289 296.543 203.01 283.441 200.183 280.685C199.523 279.95 198.718 279.359 197.818 278.947C196.918 278.535 195.942 278.312 194.952 278.291C193.961 278.27 192.977 278.452 192.06 278.825C191.143 279.199 190.314 279.756 189.623 280.462C188.933 281.168 188.396 282.008 188.047 282.929C187.697 283.85 187.543 284.833 187.592 285.816C187.642 286.799 187.895 287.761 188.336 288.643C188.776 289.524 189.395 290.306 190.153 290.94Z" fill="#311B92"/>
<path d="M182.63 324.012C186.178 325.79 199.684 324.559 199.684 324.559C199.684 324.559 192.659 313.02 189.11 311.274C187.428 310.58 185.543 310.545 183.835 311.174C182.127 311.803 180.722 313.05 179.902 314.666C179.081 316.282 178.907 318.146 179.413 319.884C179.919 321.623 181.068 323.106 182.63 324.038V324.012Z" fill="#311B92"/>
<path d="M179.744 357.15C182.938 359.495 196.49 360.557 196.49 360.557C196.49 360.557 191.505 348.002 188.304 345.65C187.554 344.991 186.673 344.494 185.719 344.191C184.765 343.889 183.758 343.787 182.762 343.892C181.766 343.997 180.803 344.306 179.934 344.801C179.065 345.296 178.309 345.966 177.715 346.767C177.121 347.567 176.701 348.483 176.482 349.453C176.264 350.424 176.251 351.43 176.445 352.406C176.639 353.382 177.035 354.307 177.609 355.123C178.182 355.938 178.921 356.626 179.777 357.143L179.744 357.15Z" fill="#311B92"/>
<path opacity="0.1" d="M207.863 259.27C207.863 263.218 200.648 274.666 200.648 274.666C200.648 274.666 193.433 263.218 193.433 259.27C193.36 258.287 193.491 257.299 193.82 256.369C194.148 255.439 194.666 254.586 195.342 253.864C196.017 253.142 196.835 252.566 197.745 252.172C198.654 251.778 199.636 251.574 200.629 251.574C201.621 251.574 202.603 251.778 203.512 252.172C204.422 252.566 205.24 253.142 205.915 253.864C206.591 254.586 207.109 255.439 207.437 256.369C207.766 257.299 207.897 258.287 207.824 259.27H207.863Z" fill="#311B92"/>
<path opacity="0.1" d="M219.742 281.135C217.584 284.451 205.279 290.172 205.279 290.172C205.279 290.172 205.502 276.679 207.66 273.362C208.139 272.501 208.791 271.748 209.575 271.148C210.36 270.548 211.26 270.115 212.221 269.875C213.181 269.636 214.181 269.596 215.158 269.757C216.134 269.918 217.067 270.277 217.898 270.812C218.729 271.346 219.441 272.045 219.988 272.865C220.536 273.684 220.907 274.607 221.08 275.575C221.253 276.543 221.224 277.537 220.994 278.493C220.763 279.45 220.337 280.349 219.742 281.135Z" fill="#311B92"/>
<path opacity="0.1" d="M219.224 318.513C215.675 320.292 202.17 319.06 202.17 319.06C202.17 319.06 209.221 307.522 212.77 305.743C213.62 305.236 214.567 304.908 215.551 304.781C216.535 304.653 217.535 304.729 218.488 305.003C219.441 305.277 220.327 305.743 221.091 306.372C221.854 307.001 222.479 307.78 222.926 308.66C223.373 309.54 223.632 310.502 223.688 311.486C223.743 312.47 223.594 313.455 223.249 314.379C222.904 315.303 222.371 316.147 221.683 316.857C220.995 317.567 220.167 318.129 219.25 318.507L219.224 318.513Z" fill="#311B92"/>
<path opacity="0.1" d="M212.422 346.698C209.228 349.043 195.676 350.105 195.676 350.105C195.676 350.105 200.661 337.55 203.862 335.198C205.403 334.269 207.238 333.945 209.006 334.292C210.774 334.638 212.348 335.63 213.417 337.071C214.487 338.513 214.974 340.299 214.784 342.08C214.594 343.86 213.739 345.505 212.389 346.691L212.422 346.698Z" fill="#311B92"/>
<path opacity="0.1" d="M190.153 290.94C193.007 293.689 206.289 296.543 206.289 296.543C206.289 296.543 203.01 283.441 200.183 280.685C199.523 279.95 198.718 279.359 197.818 278.947C196.918 278.535 195.942 278.312 194.952 278.291C193.961 278.27 192.977 278.452 192.06 278.825C191.143 279.199 190.314 279.756 189.623 280.462C188.933 281.168 188.396 282.008 188.047 282.929C187.697 283.85 187.543 284.833 187.592 285.816C187.642 286.799 187.895 287.761 188.336 288.643C188.776 289.524 189.395 290.306 190.153 290.94Z" fill="#311B92"/>
<path opacity="0.1" d="M182.63 324.012C186.178 325.79 199.684 324.559 199.684 324.559C199.684 324.559 192.659 313.02 189.11 311.274C187.428 310.58 185.543 310.545 183.835 311.174C182.127 311.803 180.722 313.05 179.902 314.666C179.081 316.282 178.907 318.146 179.413 319.884C179.919 321.623 181.068 323.106 182.63 324.038V324.012Z" fill="#311B92"/>
<path opacity="0.1" d="M179.744 357.15C182.938 359.495 196.49 360.557 196.49 360.557C196.49 360.557 191.505 348.002 188.304 345.65C187.554 344.991 186.673 344.494 185.719 344.191C184.765 343.889 183.758 343.787 182.762 343.892C181.766 343.997 180.803 344.306 179.934 344.801C179.065 345.296 178.309 345.966 177.715 346.767C177.121 347.567 176.701 348.483 176.482 349.453C176.264 350.424 176.251 351.43 176.445 352.406C176.639 353.382 177.035 354.307 177.609 355.123C178.182 355.938 178.921 356.626 179.777 357.143L179.744 357.15Z" fill="#311B92"/>
<path d="M392.671 377.543C392.671 377.543 383.121 345.324 394.462 321.615C399.285 311.7 400.74 300.497 398.607 289.69C397.554 284.568 396.03 279.552 394.055 274.705" stroke="#535461" stroke-width="2" stroke-miterlimit="10"/>
<path d="M401.113 259.726C401.113 263.674 393.898 275.121 393.898 275.121C393.898 275.121 386.682 263.674 386.682 259.726C386.817 257.922 387.633 256.234 388.968 255.003C390.302 253.772 392.057 253.088 393.878 253.088C395.699 253.088 397.453 253.772 398.788 255.003C400.123 256.234 400.939 257.922 401.073 259.726H401.113Z" fill="#311B92"/>
<path d="M413.012 281.592C410.854 284.908 398.548 290.629 398.548 290.629C398.548 290.629 398.771 277.136 400.929 273.819C401.408 272.958 402.06 272.205 402.845 271.605C403.629 271.005 404.53 270.572 405.49 270.333C406.45 270.093 407.45 270.053 408.427 270.214C409.404 270.375 410.337 270.734 411.168 271.269C411.999 271.803 412.71 272.502 413.257 273.322C413.805 274.141 414.177 275.064 414.35 276.032C414.523 277 414.493 277.994 414.263 278.95C414.033 279.907 413.607 280.806 413.012 281.592Z" fill="#311B92"/>
<path d="M412.513 318.97C408.964 320.748 395.459 319.517 395.459 319.517C395.459 319.517 402.51 307.978 406.058 306.2C406.91 305.688 407.859 305.356 408.846 305.226C409.833 305.096 410.836 305.171 411.793 305.444C412.749 305.718 413.639 306.186 414.404 306.818C415.17 307.449 415.796 308.232 416.243 309.115C416.689 309.999 416.947 310.965 417 311.952C417.052 312.94 416.899 313.927 416.548 314.853C416.198 315.779 415.659 316.622 414.964 317.331C414.27 318.039 413.435 318.597 412.513 318.97Z" fill="#311B92"/>
<path d="M405.685 347.155C402.49 349.5 388.939 350.562 388.939 350.562C388.939 350.562 393.924 338.007 397.125 335.655C398.665 334.726 400.5 334.402 402.269 334.749C404.037 335.096 405.611 336.087 406.68 337.528C407.749 338.97 408.237 340.756 408.047 342.537C407.856 344.317 407.002 345.962 405.652 347.148L405.685 347.155Z" fill="#311B92"/>
<path d="M383.429 291.397C386.282 294.146 399.565 297 399.565 297C399.565 297 396.285 283.898 393.458 281.142C392.799 280.407 391.994 279.816 391.094 279.404C390.194 278.992 389.218 278.769 388.227 278.748C387.237 278.727 386.252 278.909 385.335 279.282C384.419 279.656 383.589 280.213 382.899 280.919C382.208 281.625 381.672 282.465 381.322 283.386C380.973 284.307 380.818 285.29 380.868 286.273C380.918 287.256 381.171 288.218 381.611 289.1C382.052 289.981 382.671 290.763 383.429 291.397Z" fill="#311B92"/>
<path d="M375.892 324.468C379.441 326.247 392.947 325.015 392.947 325.015C392.947 325.015 385.895 313.477 382.347 311.698C380.664 311.004 378.78 310.968 377.072 311.597C375.364 312.227 373.958 313.474 373.138 315.09C372.318 316.706 372.143 318.57 372.649 320.308C373.155 322.046 374.304 323.53 375.866 324.462L375.892 324.468Z" fill="#311B92"/>
<path d="M373.013 357.606C376.207 359.952 389.759 361.014 389.759 361.014C389.759 361.014 384.774 348.459 381.573 346.107C380.033 345.177 378.198 344.853 376.429 345.2C374.661 345.547 373.087 346.538 372.018 347.979C370.948 349.421 370.461 351.207 370.651 352.988C370.841 354.768 371.696 356.413 373.046 357.6L373.013 357.606Z" fill="#311B92"/>
<path opacity="0.1" d="M401.113 259.726C401.113 263.674 393.898 275.121 393.898 275.121C393.898 275.121 386.682 263.674 386.682 259.726C386.817 257.922 387.633 256.234 388.968 255.003C390.302 253.772 392.057 253.088 393.878 253.088C395.699 253.088 397.453 253.772 398.788 255.003C400.123 256.234 400.939 257.922 401.073 259.726H401.113Z" fill="#311B92"/>
<path opacity="0.1" d="M413.012 281.592C410.854 284.908 398.548 290.629 398.548 290.629C398.548 290.629 398.771 277.136 400.929 273.819C401.408 272.958 402.06 272.205 402.845 271.605C403.629 271.005 404.53 270.572 405.49 270.333C406.45 270.093 407.45 270.053 408.427 270.214C409.404 270.375 410.337 270.734 411.168 271.269C411.999 271.803 412.71 272.502 413.257 273.322C413.805 274.141 414.177 275.064 414.35 276.032C414.523 277 414.493 277.994 414.263 278.95C414.033 279.907 413.607 280.806 413.012 281.592Z" fill="#311B92"/>
<path opacity="0.1" d="M412.513 318.97C408.964 320.748 395.459 319.517 395.459 319.517C395.459 319.517 402.51 307.978 406.058 306.2C406.91 305.688 407.859 305.356 408.846 305.226C409.833 305.096 410.836 305.171 411.793 305.444C412.749 305.718 413.639 306.186 414.404 306.818C415.17 307.449 415.796 308.232 416.243 309.115C416.689 309.999 416.947 310.965 417 311.952C417.052 312.94 416.899 313.927 416.548 314.853C416.198 315.779 415.659 316.622 414.964 317.331C414.27 318.039 413.435 318.597 412.513 318.97Z" fill="#311B92"/>
<path opacity="0.1" d="M405.685 347.155C402.49 349.5 388.939 350.562 388.939 350.562C388.939 350.562 393.924 338.007 397.125 335.655C398.665 334.726 400.5 334.402 402.269 334.749C404.037 335.096 405.611 336.087 406.68 337.528C407.749 338.97 408.237 340.756 408.047 342.537C407.856 344.317 407.002 345.962 405.652 347.148L405.685 347.155Z" fill="#311B92"/>
<path opacity="0.1" d="M383.429 291.397C386.282 294.146 399.565 297 399.565 297C399.565 297 396.285 283.898 393.458 281.142C392.799 280.407 391.994 279.816 391.094 279.404C390.194 278.992 389.218 278.769 388.227 278.748C387.237 278.727 386.252 278.909 385.335 279.282C384.419 279.656 383.589 280.213 382.899 280.919C382.208 281.625 381.672 282.465 381.322 283.386C380.973 284.307 380.818 285.29 380.868 286.273C380.918 287.256 381.171 288.218 381.611 289.1C382.052 289.981 382.671 290.763 383.429 291.397Z" fill="#311B92"/>
<path opacity="0.1" d="M375.892 324.468C379.441 326.247 392.947 325.015 392.947 325.015C392.947 325.015 385.895 313.477 382.347 311.698C380.664 311.004 378.78 310.968 377.072 311.597C375.364 312.227 373.958 313.474 373.138 315.09C372.318 316.706 372.143 318.57 372.649 320.308C373.155 322.046 374.304 323.53 375.866 324.462L375.892 324.468Z" fill="#311B92"/>
<path opacity="0.1" d="M373.013 357.606C376.207 359.952 389.759 361.014 389.759 361.014C389.759 361.014 384.774 348.459 381.573 346.107C380.033 345.177 378.198 344.853 376.429 345.2C374.661 345.547 373.087 346.538 372.018 347.979C370.948 349.421 370.461 351.207 370.651 352.988C370.841 354.768 371.696 356.413 373.046 357.6L373.013 357.606Z" fill="#311B92"/>
<path opacity="0.5" d="M439.406 9.97435H435.287C435.677 9.99284 436.067 9.93247 436.433 9.79691C436.799 9.66135 437.133 9.45342 437.416 9.1857C437.698 8.91798 437.923 8.59606 438.077 8.23942C438.231 7.88277 438.31 7.49884 438.31 7.11087C438.31 6.7229 438.231 6.33898 438.077 5.98233C437.923 5.62569 437.698 5.30376 437.416 5.03604C437.133 4.76832 436.799 4.56039 436.433 4.42483C436.067 4.28927 435.677 4.22891 435.287 4.2474H401.887C401.146 4.28251 400.447 4.59952 399.936 5.13268C399.424 5.66584 399.138 6.37422 399.138 7.11087C399.138 7.84752 399.424 8.5559 399.936 9.08906C400.447 9.62222 401.146 9.93924 401.887 9.97435H406.006C405.265 10.0095 404.567 10.3265 404.055 10.8596C403.543 11.3928 403.258 12.1012 403.258 12.8378C403.258 13.5745 403.543 14.2828 404.055 14.816C404.567 15.3492 405.265 15.6662 406.006 15.7013H400.24C399.85 15.6828 399.46 15.7432 399.094 15.8787C398.728 16.0143 398.394 16.2222 398.111 16.4899C397.829 16.7577 397.604 17.0796 397.45 17.4362C397.296 17.7929 397.217 18.1768 397.217 18.5648C397.217 18.9527 397.296 19.3367 397.45 19.6933C397.604 20.0499 397.829 20.3719 398.111 20.6396C398.394 20.9073 398.728 21.1152 399.094 21.2508C399.46 21.3864 399.85 21.4467 400.24 21.4282H433.614C434.004 21.4467 434.394 21.3864 434.76 21.2508C435.126 21.1152 435.46 20.9073 435.743 20.6396C436.026 20.3719 436.251 20.0499 436.405 19.6933C436.558 19.3367 436.638 18.9527 436.638 18.5648C436.638 18.1768 436.558 17.7929 436.405 17.4362C436.251 17.0796 436.026 16.7577 435.743 16.4899C435.46 16.2222 435.126 16.0143 434.76 15.8787C434.394 15.7432 434.004 15.6828 433.614 15.7013H439.406C440.147 15.6662 440.845 15.3492 441.357 14.816C441.869 14.2828 442.154 13.5745 442.154 12.8378C442.154 12.1012 441.869 11.3928 441.357 10.8596C440.845 10.3265 440.147 10.0095 439.406 9.97435Z" fill="#DEE3F3"/>
<path opacity="0.5" d="M246.419 26.6804H243.284C243.582 26.6966 243.88 26.6522 244.161 26.55C244.441 26.4478 244.697 26.2899 244.914 26.0859C245.131 25.882 245.304 25.6362 245.422 25.3637C245.54 25.0912 245.601 24.7976 245.601 24.501C245.601 24.2043 245.54 23.9108 245.422 23.6383C245.304 23.3658 245.131 23.12 244.914 22.9161C244.697 22.7121 244.441 22.5542 244.161 22.452C243.88 22.3498 243.582 22.3054 243.284 22.3216H217.886C217.325 22.3521 216.797 22.595 216.41 23.0004C216.024 23.4057 215.809 23.9428 215.809 24.501C215.809 25.0592 216.024 25.5962 216.41 26.0016C216.797 26.407 217.325 26.6499 217.886 26.6804H221.021C220.723 26.6642 220.425 26.7085 220.144 26.8107C219.864 26.9129 219.608 27.0708 219.391 27.2748C219.174 27.4788 219.001 27.7245 218.883 27.997C218.765 28.2695 218.704 28.5631 218.704 28.8597C218.704 29.1564 218.765 29.4499 218.883 29.7224C219.001 29.9949 219.174 30.2407 219.391 30.4447C219.608 30.6486 219.864 30.8065 220.144 30.9087C220.425 31.0109 220.723 31.0553 221.021 31.0391H216.633C216.335 31.0229 216.037 31.0672 215.756 31.1694C215.476 31.2716 215.219 31.4295 215.003 31.6335C214.786 31.8375 214.613 32.0832 214.495 32.3557C214.377 32.6282 214.316 32.9218 214.316 33.2185C214.316 33.5151 214.377 33.8087 214.495 34.0812C214.613 34.3537 214.786 34.5994 215.003 34.8034C215.219 35.0074 215.476 35.1653 215.756 35.2675C216.037 35.3697 216.335 35.414 216.633 35.3978H242.031C242.329 35.414 242.627 35.3697 242.908 35.2675C243.188 35.1653 243.445 35.0074 243.662 34.8034C243.878 34.5994 244.051 34.3537 244.169 34.0812C244.287 33.8087 244.348 33.5151 244.348 33.2185C244.348 32.9218 244.287 32.6282 244.169 32.3557C244.051 32.0832 243.878 31.8375 243.662 31.6335C243.445 31.4295 243.188 31.2716 242.908 31.1694C242.627 31.0672 242.329 31.0229 242.031 31.0391H246.419C246.98 31.0086 247.508 30.7657 247.895 30.3603C248.281 29.955 248.496 29.418 248.496 28.8597C248.496 28.3015 248.281 27.7645 247.895 27.3591C247.508 26.9537 246.98 26.7108 246.419 26.6804Z" fill="#DEE3F3"/>
<path d="M33.2425 335.381C33.2425 335.381 44.7212 357.761 35.3677 370.003C26.0141 382.245 36.2204 415.61 36.2204 415.61" stroke="#311B92" stroke-miterlimit="10"/>
<path d="M36.6664 328.385C36.6664 332.698 33.4786 336.203 33.4786 336.203C33.4786 336.203 30.2908 332.704 30.2908 328.385C30.2908 324.065 33.4786 320.566 33.4786 320.566C33.4786 320.566 36.6664 324.072 36.6664 328.385Z" fill="#311B92"/>
<path d="M39.1916 335.381C39.1916 335.381 27.7128 357.761 37.0664 370.003C46.4199 382.245 36.2137 415.61 36.2137 415.61" stroke="#311B92" stroke-miterlimit="10"/>
<path d="M35.7939 328.385C35.7939 332.698 38.9818 336.203 38.9818 336.203C38.9818 336.203 42.1696 332.704 42.1696 328.385C42.1696 324.065 38.9818 320.566 38.9818 320.566C38.9818 320.566 35.7939 324.072 35.7939 328.385Z" fill="#311B92"/>
<path opacity="0.1" d="M35.7939 328.385C35.7939 332.698 38.9818 336.203 38.9818 336.203C38.9818 336.203 42.1696 332.704 42.1696 328.385C42.1696 324.065 38.9818 320.566 38.9818 320.566C38.9818 320.566 35.7939 324.072 35.7939 328.385Z" fill="black"/>
<path d="M43.8816 335.381C43.8816 335.381 55.3604 357.761 46.0068 370.003C36.6533 382.245 46.8595 415.61 46.8595 415.61" stroke="#311B92" stroke-miterlimit="10"/>
<path d="M47.2726 328.385C47.2726 332.698 44.0848 336.203 44.0848 336.203C44.0848 336.203 40.897 332.704 40.897 328.385C40.897 324.065 44.0848 320.566 44.0848 320.566C44.0848 320.566 47.2726 324.072 47.2726 328.385Z" fill="#311B92"/>
<path d="M45.4821 346.314C42.4714 349.422 37.729 349.748 37.729 349.748C37.729 349.748 37.8733 345.031 40.884 341.93C43.8947 338.828 48.6371 338.496 48.6371 338.496C48.6371 338.496 48.4731 343.2 45.4821 346.314Z" fill="#311B92"/>
<path d="M45.7838 361.756C42.7731 364.864 38.0308 365.189 38.0308 365.189C38.0308 365.189 38.1751 360.472 41.1858 357.371C44.1965 354.27 48.9388 353.938 48.9388 353.938C48.9388 353.938 48.7945 358.642 45.7838 361.756Z" fill="#311B92"/>
<path d="M29.4512 370.244C32.2979 373.502 32.1995 378.219 32.1995 378.219C32.1995 378.219 27.4834 377.652 24.6367 374.395C21.79 371.137 21.8884 366.42 21.8884 366.42C21.8884 366.42 26.6045 366.987 29.4512 370.244Z" fill="#311B92"/>
<path d="M32.0747 337.335C35.6954 339.72 36.8696 344.294 36.8696 344.294C36.8696 344.294 32.1731 345.004 28.5524 342.619C24.9317 340.235 23.7576 335.661 23.7576 335.661C23.7576 335.661 28.4737 334.938 32.0747 337.335Z" fill="#311B92"/>
<path opacity="0.1" d="M32.0747 337.335C35.6954 339.72 36.8696 344.294 36.8696 344.294C36.8696 344.294 32.1731 345.004 28.5524 342.619C24.9317 340.235 23.7576 335.661 23.7576 335.661C23.7576 335.661 28.4737 334.938 32.0747 337.335Z" fill="black"/>
<path d="M49.8178 335.381C49.8178 335.381 38.3391 357.761 47.6926 370.003C57.0461 382.245 46.8399 415.61 46.8399 415.61" stroke="#311B92" stroke-miterlimit="10"/>
<path d="M46.4199 328.385C46.4199 332.698 49.6077 336.203 49.6077 336.203C49.6077 336.203 52.7955 332.704 52.7955 328.385C52.7955 324.065 49.6077 320.566 49.6077 320.566C49.6077 320.566 46.4199 324.072 46.4199 328.385Z" fill="#311B92"/>
<path opacity="0.1" d="M46.4199 328.385C46.4199 332.698 49.6077 336.203 49.6077 336.203C49.6077 336.203 52.7955 332.704 52.7955 328.385C52.7955 324.065 49.6077 320.566 49.6077 320.566C49.6077 320.566 46.4199 324.072 46.4199 328.385Z" fill="black"/>
<path d="M47.3382 346.647C44.2882 349.722 44.0586 354.465 44.0586 354.465C44.0586 354.465 48.8009 354.198 51.851 351.123C54.9011 348.048 55.1306 343.305 55.1306 343.305C55.1306 343.305 50.3883 343.572 47.3382 346.647Z" fill="#311B92"/>
<path opacity="0.1" d="M47.3382 346.647C44.2882 349.722 44.0586 354.465 44.0586 354.465C44.0586 354.465 48.8009 354.198 51.851 351.123C54.9011 348.048 55.1306 343.305 55.1306 343.305C55.1306 343.305 50.3883 343.572 47.3382 346.647Z" fill="black"/>
<path d="M53.3138 368.024C50.2638 371.099 50.0342 375.842 50.0342 375.842C50.0342 375.842 54.7765 375.575 57.8266 372.5C60.8767 369.425 61.1062 364.682 61.1062 364.682C61.1062 364.682 56.3442 364.949 53.3138 368.024Z" fill="#311B92"/>
<path d="M44.5376 363.326C44.5376 363.326 51.4445 352.511 61.1457 352.25" stroke="#311B92" stroke-miterlimit="10"/>
<path d="M39.1391 356.791C39.1391 356.791 32.2322 345.975 22.531 345.715" stroke="#311B92" stroke-miterlimit="10"/>
<path d="M38.2407 372.232C38.2407 372.232 45.1476 361.417 54.8488 361.156" stroke="#311B92" stroke-miterlimit="10"/>
<path d="M60.8109 353.969C61.7999 353.969 62.6016 353.173 62.6016 352.191C62.6016 351.208 61.7999 350.412 60.8109 350.412C59.822 350.412 59.0203 351.208 59.0203 352.191C59.0203 353.173 59.822 353.969 60.8109 353.969Z" fill="#311B92"/>
<path d="M22.7016 347.585C23.6905 347.585 24.4923 346.788 24.4923 345.806C24.4923 344.824 23.6905 344.027 22.7016 344.027C21.7126 344.027 20.9109 344.824 20.9109 345.806C20.9109 346.788 21.7126 347.585 22.7016 347.585Z" fill="#311B92"/>
<path d="M43.3239 375.777C43.3239 375.777 36.417 364.962 26.7158 364.701" stroke="#311B92" stroke-miterlimit="10"/>
<path d="M26.8866 366.583C27.8756 366.583 28.6773 365.786 28.6773 364.804C28.6773 363.822 27.8756 363.025 26.8866 363.025C25.8977 363.025 25.0959 363.822 25.0959 364.804C25.0959 365.786 25.8977 366.583 26.8866 366.583Z" fill="#311B92"/>
<path d="M54.9799 363.026C55.9689 363.026 56.7706 362.23 56.7706 361.247C56.7706 360.265 55.9689 359.469 54.9799 359.469C53.9909 359.469 53.1892 360.265 53.1892 361.247C53.1892 362.23 53.9909 363.026 54.9799 363.026Z" fill="#311B92"/>
<path d="M81.5185 402.586C81.5185 402.586 64.8711 399.276 60.4239 394.866C55.9767 390.455 36.0103 382.741 33.7867 388.253C31.5631 393.765 3.81734 412.509 22.6884 415.819C41.5594 419.129 67.0881 420.23 72.6373 418.021C78.1864 415.812 81.5185 402.586 81.5185 402.586Z" fill="#A8A8A8"/>
<path opacity="0.2" d="M22.6886 413.766C41.5596 417.076 67.0883 418.177 72.6375 415.968C76.8616 414.288 79.8002 406.196 80.9612 402.469L81.5187 402.586C81.5187 402.586 78.1866 415.819 72.6375 418.021C67.0883 420.223 41.5596 419.122 22.6886 415.819C17.2444 414.861 15.6833 412.62 16.2736 409.785C16.7327 411.61 18.6349 413.056 22.6886 413.766Z" fill="black"/>
<path d="M586.944 340.451C586.944 340.451 592.44 347.618 584.405 358.368C576.37 369.118 569.745 378.246 572.428 384.97C572.428 384.97 584.55 364.949 594.415 364.669C604.28 364.388 597.799 352.485 586.944 340.451Z" fill="#311B92"/>
<path opacity="0.1" d="M586.944 340.451C587.423 341.142 587.8 341.896 588.065 342.692C597.694 353.925 602.817 364.408 593.569 364.675C584.95 364.923 574.612 380.227 572.133 384.097C572.215 384.396 572.313 384.689 572.428 384.977C572.428 384.977 584.55 364.955 594.415 364.675C604.28 364.395 597.799 352.485 586.944 340.451Z" fill="black"/>
<path d="M597.163 349.547C597.163 352.061 596.881 354.107 596.507 354.107C596.133 354.107 595.851 352.068 595.851 349.547C595.851 347.025 596.205 348.243 596.553 348.243C596.901 348.243 597.163 347.038 597.163 349.547Z" fill="#FFD037"/>
<path d="M600.672 352.549C598.449 353.754 596.514 354.503 596.35 354.171C596.186 353.839 597.845 352.64 600.069 351.441C602.292 350.242 601.414 351.115 601.584 351.441C601.755 351.767 602.889 351.343 600.672 352.549Z" fill="#FFD037"/>
<path d="M557.912 340.451C557.912 340.451 552.416 347.618 560.451 358.368C568.486 369.118 575.111 378.246 572.428 384.97C572.428 384.97 560.306 364.949 550.441 364.669C540.576 364.388 547.057 352.485 557.912 340.451Z" fill="#311B92"/>
<path opacity="0.1" d="M557.912 340.451C557.433 341.142 557.056 341.896 556.791 342.692C547.162 353.925 542.039 364.408 551.287 364.675C559.906 364.923 570.244 380.227 572.723 384.097C572.641 384.396 572.543 384.689 572.428 384.977C572.428 384.977 560.306 364.955 550.441 364.675C540.576 364.395 547.057 352.485 557.912 340.451Z" fill="black"/>
<path d="M547.693 349.547C547.693 352.061 547.975 354.107 548.349 354.107C548.723 354.107 549.005 352.068 549.005 349.547C549.005 347.025 548.651 348.243 548.303 348.243C547.955 348.243 547.693 347.038 547.693 349.547Z" fill="#FFD037"/>
<path d="M544.184 352.549C546.407 353.754 548.342 354.503 548.506 354.171C548.67 353.839 547.011 352.64 544.787 351.441C542.564 350.242 543.443 351.115 543.272 351.441C543.102 351.767 541.96 351.343 544.184 352.549Z" fill="#FFD037"/>
<path d="M549.444 384.031C549.444 384.031 564.813 383.561 569.444 380.284C574.074 377.007 593.057 373.117 594.231 378.33C595.405 383.542 617.326 404.463 599.977 404.599C582.628 404.736 559.664 401.915 555.039 399.12C550.415 396.325 549.444 384.031 549.444 384.031Z" fill="#A8A8A8"/>
<path opacity="0.2" d="M600.285 402.795C582.936 402.931 559.972 400.11 555.348 397.315C551.825 395.185 550.422 387.542 549.956 384.018H549.444C549.444 384.018 550.415 396.331 555.039 399.127C559.664 401.922 582.628 404.749 599.977 404.606C604.988 404.567 606.713 402.795 606.622 400.176C605.926 401.772 604.044 402.762 600.285 402.795Z" fill="black"/>
<path opacity="0.5" d="M116.65 48.6306H112.531C112.921 48.6491 113.311 48.5887 113.677 48.4532C114.043 48.3176 114.377 48.1097 114.66 47.8419C114.943 47.5742 115.168 47.2523 115.322 46.8957C115.475 46.539 115.555 46.1551 115.555 45.7671C115.555 45.3792 115.475 44.9952 115.322 44.6386C115.168 44.2819 114.943 43.96 114.66 43.6923C114.377 43.4246 114.043 43.2166 113.677 43.0811C113.311 42.9455 112.921 42.8852 112.531 42.9036H79.1574C78.4166 42.9388 77.7178 43.2558 77.2061 43.7889C76.6943 44.3221 76.4088 45.0305 76.4088 45.7671C76.4088 46.5038 76.6943 47.2122 77.2061 47.7453C77.7178 48.2785 78.4166 48.5955 79.1574 48.6306H83.2766C82.5358 48.6657 81.8371 48.9827 81.3253 49.5159C80.8136 50.049 80.5281 50.7574 80.5281 51.4941C80.5281 52.2307 80.8136 52.9391 81.3253 53.4723C81.8371 54.0054 82.5358 54.3224 83.2766 54.3575H77.511C76.7702 54.3927 76.0715 54.7097 75.5597 55.2428C75.0479 55.776 74.7625 56.4844 74.7625 57.221C74.7625 57.9577 75.0479 58.666 75.5597 59.1992C76.0715 59.7324 76.7702 60.0494 77.511 60.0845H110.885C111.275 60.103 111.665 60.0426 112.031 59.9071C112.397 59.7715 112.731 59.5636 113.014 59.2958C113.296 59.0281 113.521 58.7062 113.675 58.3496C113.829 57.9929 113.908 57.609 113.908 57.221C113.908 56.8331 113.829 56.4491 113.675 56.0925C113.521 55.7358 113.296 55.4139 113.014 55.1462C112.731 54.8785 112.397 54.6705 112.031 54.535C111.665 54.3994 111.275 54.3391 110.885 54.3575H116.65C117.391 54.3224 118.09 54.0054 118.601 53.4723C119.113 52.9391 119.399 52.2307 119.399 51.4941C119.399 50.7574 119.113 50.049 118.601 49.5159C118.09 48.9827 117.391 48.6657 116.65 48.6306Z" fill="#DEE3F3"/>
</g>
<defs>
<linearGradient id="paint0_linear" x1="302.055" y1="354.277" x2="302.055" y2="84.5433" gradientUnits="userSpaceOnUse">
<stop stop-color="#808080" stop-opacity="0.25"/>
<stop offset="0.54" stop-color="#808080" stop-opacity="0.12"/>
<stop offset="1" stop-color="#808080" stop-opacity="0.1"/>
</linearGradient>
<linearGradient id="paint1_linear" x1="251.137" y1="308.414" x2="251.137" y2="308.383" gradientUnits="userSpaceOnUse">
<stop stop-color="#808080" stop-opacity="0.25"/>
<stop offset="0.54" stop-color="#808080" stop-opacity="0.12"/>
<stop offset="1" stop-color="#808080" stop-opacity="0.1"/>
</linearGradient>
<linearGradient id="paint2_linear" x1="42238.8" y1="131739" x2="42238.8" y2="59064.8" gradientUnits="userSpaceOnUse">
<stop stop-color="#808080" stop-opacity="0.25"/>
<stop offset="0.54" stop-color="#808080" stop-opacity="0.12"/>
<stop offset="1" stop-color="#808080" stop-opacity="0.1"/>
</linearGradient>
<linearGradient id="paint3_linear" x1="118987" y1="159693" x2="118987" y2="51761" gradientUnits="userSpaceOnUse">
<stop stop-color="#808080" stop-opacity="0.25"/>
<stop offset="0.54" stop-color="#808080" stop-opacity="0.12"/>
<stop offset="1" stop-color="#808080" stop-opacity="0.1"/>
</linearGradient>
<clipPath id="clip0">
<path d="M0 0H623V431H0V0Z" fill="white"/>
</clipPath>
</defs>
</svg>
