<svg width="38" height="38" viewBox="0 0 38 38" fill="none" xmlns="http://www.w3.org/2000/svg">
<path d="M20.0781 19.3694C19.49 19.4056 19.0106 19.7381 18.6444 20.3713C18.2756 21.0069 18.0769 21.8913 18.055 23.0206C18.0338 24.1531 18.195 25.0081 18.54 25.5838C18.885 26.1588 19.3519 26.4106 19.9419 26.3469C20.5269 26.2825 20.9963 25.9313 21.345 25.2956C21.6944 24.6613 21.8794 23.7956 21.9 22.6944C21.9219 21.5969 21.7687 20.7625 21.4425 20.1856C21.1162 19.6063 20.6612 19.3331 20.0781 19.3694Z" fill="#311B92"/>
<path d="M27.1038 9.51687C27.3888 7.78187 27.64 4.62625 26.7463 0.709375L26.6413 0.25L5.52188 0.6275L5.68688 1.3225C6.49063 4.71375 6.34 7.74625 6.09687 9.615L0.25 9.76562L1.76437 29.3288L6.30688 37.75L36.1637 32.4069L37.75 11.3825L27.1038 9.51687ZM6.98125 1.755L25.7031 1.42062C26.6081 5.785 25.9556 9.99 25.7031 11.0956L6.98563 11.9444C7.28875 10.4369 7.85438 6.01813 6.98125 1.755ZM13.1644 28.6344L11.6131 28.82L9.11938 18.4862L10.9256 18.3931L12.4744 26.2094L14.3394 18.2175L15.9819 18.1331L13.1644 28.6344ZM22.2212 26.6856C21.6837 27.5075 20.9156 27.9819 19.9062 28.105C18.8844 28.2288 18.1012 27.9344 17.5662 27.2137C16.8381 26.3319 16.49 24.9744 16.5294 23.1519C16.5662 21.295 16.97 19.8781 17.7331 18.9081C18.2987 18.0981 19.0944 17.67 20.1125 17.6188C21.1175 17.5694 21.8687 17.9119 22.3731 18.6419C23.0456 19.4912 23.3619 20.7994 23.3294 22.5713C23.2962 24.3106 22.9287 25.68 22.2212 26.6856ZM29.135 19.0956L27.2475 19.215L27.11 26.9675L25.7456 27.13L25.8881 19.3019L23.8975 19.4275L23.93 17.7231L29.1631 17.4537L29.135 19.0956ZM34.3206 26.1062L29.8 26.6469L29.9569 17.4137L34.3225 17.1887L34.2962 18.7681L31.1731 18.9662L31.1425 20.9069L34.0163 20.6831L33.9912 22.2375L31.115 22.495L31.0756 24.85L34.345 24.4981L34.3206 26.1062Z" fill="#311B92"/>
<path d="M24.1581 3.945C20.78 4.01063 17.4013 4.0775 14.0219 4.1425C14.025 4.41625 14.0231 4.69 14.0156 4.96313C17.3975 4.89688 20.7781 4.82875 24.1594 4.76312C24.1638 4.49 24.1637 4.2175 24.1581 3.945Z" fill="#311B92"/>
<path d="M10.8113 5.91437C10.8321 5.93122 10.8561 5.94357 10.8819 5.95065C10.9077 5.95772 10.9347 5.95938 10.9612 5.9555C10.9877 5.95163 11.0131 5.94231 11.0358 5.92813C11.0585 5.91395 11.078 5.89522 11.0931 5.87312C11.602 5.12722 12.088 4.36604 12.5506 3.59062C12.6069 3.4975 12.5506 3.38562 12.4288 3.34375L12.2069 3.26687C12.0838 3.22437 11.9388 3.26625 11.8838 3.35937C11.5742 3.88829 11.2527 4.41009 10.9194 4.92438C10.8594 5.01875 10.7325 5.03812 10.6388 4.96687C10.3743 4.76583 10.1089 4.56604 9.8425 4.3675C9.79103 4.33321 9.73024 4.31559 9.66841 4.31705C9.60657 4.3185 9.54668 4.33895 9.49688 4.37562C9.43813 4.42 9.38125 4.46562 9.32313 4.51062C9.22938 4.585 9.2275 4.705 9.32063 4.77437C9.825 5.15375 10.3219 5.53312 10.8113 5.91437Z" fill="#311B92"/>
<path d="M23.8787 8.73L13.7037 8.94562C13.6706 9.21937 13.6369 9.49312 13.6025 9.76625L23.7819 9.54875C23.8144 9.27563 23.8475 9.00312 23.8787 8.73Z" fill="#311B92"/>
<path d="M12.3694 8.04187L9.02313 8.11188C8.92235 9.01098 8.81172 9.90895 8.69125 10.8056L12.0419 10.7312C12.1588 9.83562 12.2744 8.93875 12.3694 8.04187Z" fill="#311B92"/>
</svg>
