<svg width="702" height="516" viewBox="0 0 702 516" fill="none" xmlns="http://www.w3.org/2000/svg">
<g clip-path="url(#clip0)">
<path d="M0 0H702V516H0V0Z" fill="white"/>
<path d="M702 191.067H406.924V199.703H702V191.067Z" fill="#E6E6E6"/>
<path d="M506.069 118.846H431.316V193.422H506.069V118.846Z" fill="#E6E6E6"/>
<path d="M491.118 133.761H446.267V178.507H491.118V133.761Z" fill="#CCCCCC"/>
<path d="M617.805 118.846H598.92V193.422H617.805V118.846Z" fill="#E6E6E6"/>
<path d="M617.805 130.621H598.92V139.256H617.805V130.621Z" fill="#CCCCCC"/>
<path d="M617.805 168.302H598.92V176.937H617.805V168.302Z" fill="#CCCCCC"/>
<path d="M588.691 118.846H569.806V193.422H588.691V118.846Z" fill="#E6E6E6"/>
<path d="M588.691 130.621H569.806V139.256H588.691V130.621Z" fill="#CCCCCC"/>
<path d="M588.691 168.302H569.806V176.937H588.691V168.302Z" fill="#CCCCCC"/>
<path d="M634.077 118.538L617.152 126.897L650.319 193.731L667.244 185.372L634.077 118.538Z" fill="#E6E6E6"/>
<path d="M639.313 129.09L622.389 137.45L626.229 145.188L643.153 136.829L639.313 129.09Z" fill="#CCCCCC"/>
<path d="M656.072 162.859L639.147 171.218L642.988 178.957L659.912 170.598L656.072 162.859Z" fill="#CCCCCC"/>
<path d="M459.25 148.781L468.761 165.214L478.271 181.647H459.25H440.23L449.74 165.214L459.25 148.781Z" fill="#E6E6E6"/>
<path d="M475.775 151.921L485.285 168.354L494.795 184.787H475.775H456.755L466.265 168.354L475.775 151.921Z" fill="#E6E6E6"/>
<path d="M482.463 147.107C485.505 147.107 487.971 144.646 487.971 141.611C487.971 138.577 485.505 136.116 482.463 136.116C479.421 136.116 476.955 138.577 476.955 141.611C476.955 144.646 479.421 147.107 482.463 147.107Z" fill="#E6E6E6"/>
<path d="M406.924 81.1651L702 81.1651V72.5299L406.924 72.5299V81.1651Z" fill="#E6E6E6"/>
<path d="M602.855 74.8849L677.607 74.8849V0.30838L602.855 0.30838V74.8849Z" fill="#E6E6E6"/>
<path d="M617.805 59.9697L662.656 59.9697V15.2237L617.805 15.2237V59.9697Z" fill="#CCCCCC"/>
<path d="M491.119 74.8849H510.004V0.30838H491.119V74.8849Z" fill="#E6E6E6"/><svg width="702" height="516" viewBox="0 0 702 516" fill="none" xmlns="http://www.w3.org/2000/svg">
<g clip-path="url(#clip0)">
<path d="M0 0H702V516H0V0Z" fill="white"/>
<path d="M702 191.067H406.924V199.703H702V191.067Z" fill="#E6E6E6"/>
<path d="M506.069 118.846H431.316V193.422H506.069V118.846Z" fill="#E6E6E6"/>
<path d="M491.118 133.761H446.267V178.507H491.118V133.761Z" fill="#CCCCCC"/>
<path d="M617.805 118.846H598.92V193.422H617.805V118.846Z" fill="#E6E6E6"/>
<path d="M617.805 130.621H598.92V139.256H617.805V130.621Z" fill="#CCCCCC"/>
<path d="M617.805 168.302H598.92V176.937H617.805V168.302Z" fill="#CCCCCC"/>
<path d="M588.691 118.846H569.806V193.422H588.691V118.846Z" fill="#E6E6E6"/>
<path d="M588.691 130.621H569.806V139.256H588.691V130.621Z" fill="#CCCCCC"/>
<path d="M588.691 168.302H569.806V176.937H588.691V168.302Z" fill="#CCCCCC"/>
<path d="M634.077 118.538L617.152 126.897L650.319 193.731L667.244 185.372L634.077 118.538Z" fill="#E6E6E6"/>
<path d="M639.313 129.09L622.389 137.45L626.229 145.188L643.153 136.829L639.313 129.09Z" fill="#CCCCCC"/>
<path d="M656.072 162.859L639.147 171.218L642.988 178.957L659.912 170.598L656.072 162.859Z" fill="#CCCCCC"/>
<path d="M459.25 148.781L468.761 165.214L478.271 181.647H459.25H440.23L449.74 165.214L459.25 148.781Z" fill="#E6E6E6"/>
<path d="M475.775 151.921L485.285 168.354L494.795 184.787H475.775H456.755L466.265 168.354L475.775 151.921Z" fill="#E6E6E6"/>
<path d="M482.463 147.107C485.505 147.107 487.971 144.646 487.971 141.611C487.971 138.577 485.505 136.116 482.463 136.116C479.421 136.116 476.955 138.577 476.955 141.611C476.955 144.646 479.421 147.107 482.463 147.107Z" fill="#E6E6E6"/>
<path d="M406.924 81.1651L702 81.1651V72.5299L406.924 72.5299V81.1651Z" fill="#E6E6E6"/>
<path d="M602.855 74.8849L677.607 74.8849V0.30838L602.855 0.30838V74.8849Z" fill="#E6E6E6"/>
<path d="M617.805 59.9697L662.656 59.9697V15.2237L617.805 15.2237V59.9697Z" fill="#CCCCCC"/>
<path d="M491.119 74.8849H510.004V0.30838H491.119V74.8849Z" fill="#E6E6E6"/>
<path d="M491.119 20.7188L510.004 20.7188V12.0836L491.119 12.0836V20.7188Z" fill="#CCCCCC"/>
<path d="M491.119 58.3996H510.004V49.7644H491.119V58.3996Z" fill="#CCCCCC"/>
<path d="M520.233 74.8849H539.118V0.30838H520.233V74.8849Z" fill="#E6E6E6"/>
<path d="M520.233 20.7188L539.118 20.7188V12.0836L520.233 12.0836V20.7188Z" fill="#CCCCCC"/>
<path d="M520.233 58.3996H539.118V49.7644H520.233V58.3996Z" fill="#CCCCCC"/>
<path d="M441.68 66.8341L458.604 75.1934L491.772 8.35934L474.847 4.12773e-05L441.68 66.8341Z" fill="#E6E6E6"/>
<path d="M465.77 18.2915L482.694 26.6508L486.535 18.9121L469.611 10.5528L465.77 18.2915Z" fill="#CCCCCC"/>
<path d="M449.011 52.0603L465.936 60.4196L469.776 52.6809L452.852 44.3216L449.011 52.0603Z" fill="#CCCCCC"/>
<path d="M649.673 30.2431L640.163 46.6762L630.653 63.1094H649.673H668.694L659.183 46.6762L649.673 30.2431Z" fill="#E6E6E6"/>
<path d="M633.149 33.3832L623.639 49.8163L614.129 66.2494H633.149H652.169L642.66 49.8163L633.149 33.3832Z" fill="#E6E6E6"/>
<path d="M626.46 28.569C629.502 28.569 631.968 26.1087 631.968 23.0738C631.968 20.039 629.502 17.5787 626.46 17.5787C623.418 17.5787 620.952 20.039 620.952 23.0738C620.952 26.1087 623.418 28.569 626.46 28.569Z" fill="#E6E6E6"/>
<path d="M406.924 318.24L702 318.24V309.605L406.924 309.605V318.24Z" fill="#E6E6E6"/>
<path d="M602.855 311.96H677.607V237.383H602.855V311.96Z" fill="#E6E6E6"/>
<path d="M617.805 297.045H662.656V252.299H617.805V297.045Z" fill="#CCCCCC"/>
<path d="M491.119 311.96H510.004V237.383H491.119V311.96Z" fill="#E6E6E6"/>
<path d="M491.119 257.794H510.004V249.159H491.119V257.794Z" fill="#CCCCCC"/>
<path d="M491.119 295.475H510.004V286.839H491.119V295.475Z" fill="#CCCCCC"/>
<path d="M520.233 311.96H539.118V237.383H520.233V311.96Z" fill="#E6E6E6"/>
<path d="M520.233 257.794H539.118V249.159H520.233V257.794Z" fill="#CCCCCC"/>
<path d="M520.233 295.475H539.118V286.839H520.233V295.475Z" fill="#CCCCCC"/>
<path d="M441.68 303.909L458.604 312.268L491.772 245.434L474.847 237.075L441.68 303.909Z" fill="#E6E6E6"/>
<path d="M465.77 255.366L482.694 263.726L486.535 255.987L469.611 247.628L465.77 255.366Z" fill="#CCCCCC"/>
<path d="M449.011 289.135L465.936 297.495L469.776 289.756L452.852 281.397L449.011 289.135Z" fill="#CCCCCC"/>
<path d="M649.673 267.318L640.163 283.751L630.653 300.185H649.673H668.694L659.183 283.751L649.673 267.318Z" fill="#E6E6E6"/>
<path d="M633.149 270.458L623.639 286.891L614.129 303.325H633.149H652.169L642.66 286.891L633.149 270.458Z" fill="#E6E6E6"/>
<path d="M626.46 265.644C629.502 265.644 631.968 263.184 631.968 260.149C631.968 257.114 629.502 254.654 626.46 254.654C623.418 254.654 620.952 257.114 620.952 260.149C620.952 263.184 623.418 265.644 626.46 265.644Z" fill="#E6E6E6"/>
<path d="M347.6 516C539.575 516 695.201 504.973 695.201 491.371C695.201 477.768 539.575 466.741 347.6 466.741C155.626 466.741 0 477.768 0 491.371C0 504.973 155.626 516 347.6 516Z" fill="#E6E6E6"/>
<path d="M619.163 505.163C562.484 495.099 500.504 496.772 435.488 505.163C465.121 480.205 490.696 455.248 461.063 430.29C518.866 442.187 526.963 440.982 591.263 430.29C576.349 455.248 604.249 480.205 619.163 505.163Z" fill="#311B92"/>
<path opacity="0.2" d="M619.163 505.163C562.484 495.099 500.504 496.772 435.488 505.163C465.121 480.205 490.696 455.248 461.063 430.29C518.866 442.187 526.963 440.982 591.263 430.29C576.349 455.248 604.249 480.205 619.163 505.163Z" fill="black"/>
<path d="M605.338 494.515C557.191 486.482 504.541 487.817 449.312 494.515C474.485 474.594 496.21 454.672 471.038 434.75C520.139 444.246 527.016 443.285 581.638 434.75C568.969 454.672 592.669 474.594 605.338 494.515Z" fill="#311B92"/>
<path d="M586.999 462.417C601.168 462.417 612.653 450.958 612.653 436.823C612.653 422.688 601.168 411.23 586.999 411.23C572.831 411.23 561.346 422.688 561.346 436.823C561.346 450.958 572.831 462.417 586.999 462.417Z" fill="#2F2E41"/>
<path d="M470.544 407.138L488.319 410.094L497.207 435.708L471.532 451.471L441.906 407.138H469.557H470.544Z" fill="#A0616A"/>
<path d="M520.907 446.545C543.813 446.545 562.382 428.02 562.382 405.168C562.382 382.316 543.813 363.791 520.907 363.791C498.001 363.791 479.432 382.316 479.432 405.168C479.432 428.02 498.001 446.545 520.907 446.545Z" fill="#A0616A"/>
<path d="M291.807 254.436C291.807 254.436 191.082 265.273 173.307 263.303C155.532 261.332 147.632 259.362 147.632 259.362C147.632 259.362 135.782 275.125 141.707 282.021C145.025 285.995 149.041 289.333 153.557 291.873C153.557 291.873 164.419 288.917 172.319 291.873C180.219 294.828 260.207 307.636 274.032 295.814C287.857 283.991 291.807 254.436 291.807 254.436Z" fill="#2F2E41"/>
<path d="M298.719 474.13C298.719 474.13 232.556 455.412 220.706 372.657V364.776C220.706 364.776 207.615 387.687 202.931 392.361C197.5 397.779 178.244 446.545 179.231 451.471C180.219 456.397 179.231 458.367 179.231 458.367L150.594 455.412V446.545C150.594 446.545 165.9 400.735 166.888 389.898C167.875 379.061 204.906 303.695 204.906 303.695C204.906 303.695 218.731 275.125 242.431 303.695C266.131 332.265 268.106 351.968 268.106 351.968L298.719 411.079L298.719 474.13Z" fill="#2F2E41"/>
<path d="M150.593 256.407L118.993 245.57C118.993 245.57 89.3684 223.896 96.2809 245.57C103.193 267.243 134.793 314.532 143.681 309.606C152.568 304.68 163.257 292.453 160.875 290.685C158.493 288.917 142.693 276.11 150.593 256.407Z" fill="#2F2E41"/>
<path d="M154.413 440.729L128.904 453.157C128.904 453.157 98.056 457.892 115.26 466.77C132.464 475.647 179.922 485.117 182.295 476.831C184.668 468.545 183.727 454.794 181.231 455.159C178.736 455.525 161.532 457.3 154.413 440.729Z" fill="#2F2E41"/>
<path d="M285.882 409.109C285.882 409.109 273.044 464.278 294.769 476.1C316.494 487.922 468.57 489.893 480.42 468.219C492.27 446.545 486.345 446.545 486.345 446.545L454.745 411.079L480.42 409.109C480.42 409.109 480.42 401.227 471.532 400.242C462.645 399.257 434.994 389.405 411.294 396.301C387.594 403.197 373.769 382.509 373.769 382.509L285.882 409.109Z" fill="#575A89"/>
<path d="M269.095 236.703L252.307 328.325L367.845 314.532L388.582 231.777L269.095 236.703Z" fill="#3F3D56"/>
<path d="M272.551 240.151L258.726 321.921L363.894 309.606L384.138 235.225L272.551 240.151Z" fill="white"/>
<path d="M256.257 329.31L252.307 328.325L250.332 332.265L281.932 419.946L284.904 418.812L285.882 413.05L256.257 329.31Z" fill="#B3B3B3"/>
<path d="M252.307 327.339L283.907 418.96L403.394 401.227L367.845 314.532L252.307 327.339Z" fill="#D0CDE1"/>
<path d="M268.106 324.384V329.31L355.994 319.458L355.006 314.532L268.106 324.384Z" fill="#3F3D56"/>
<path d="M270.081 334.236L283.906 372.657L373.769 361.821L357.969 325.369L270.081 334.236Z" fill="#3F3D56"/>
<path d="M382.656 388.42L379.694 380.539C379.694 380.539 356.981 341.132 345.131 349.013C333.281 356.894 369.819 395.316 369.819 395.316H381.669L382.656 388.42Z" fill="#A0616A"/>
<path d="M307.606 394.331L304.644 382.509C304.644 382.509 296.744 346.057 310.569 348.028C324.394 349.998 328.344 384.479 328.344 384.479L327.356 392.361L307.606 394.331Z" fill="#A0616A"/>
<path d="M331.306 389.405C331.306 389.405 305.631 385.464 304.644 391.376C303.656 397.287 298.719 485.952 323.406 488.908C348.094 491.863 470.544 504.671 457.707 474.13C444.869 443.59 425.119 447.531 425.119 447.531L341.181 456.397L331.306 389.405Z" fill="#575A89"/>
<path d="M408.825 400.735L382.657 382.509L365.375 395.809L387.1 419.453L408.825 400.735Z" fill="#575A89"/>
<path opacity="0.2" d="M338.713 418.468L342.662 455.905L410.8 451.964L351.55 450.979L338.713 418.468Z" fill="black"/>
<path d="M541.38 461.945C568.649 461.945 590.755 439.891 590.755 412.686C590.755 385.481 568.649 363.428 541.38 363.428C514.111 363.428 492.005 385.481 492.005 412.686C492.005 439.891 514.111 461.945 541.38 461.945Z" fill="#2F2E41"/>
<path d="M287.363 268.721L348.588 266.595L354.513 244.092L291.313 245.995L287.363 268.721Z" fill="#311B92"/>
<path d="M271.563 281.529L364.388 278.573L365.375 274.632L272.551 277.893L271.563 281.529Z" fill="#E6E6E6"/>
<path d="M269.588 291.38L362.413 288.425L363.401 284.484L270.575 287.744L269.588 291.38Z" fill="#E6E6E6"/>
<path d="M268.601 299.261L361.425 296.306L362.413 292.365L269.588 295.625L268.601 299.261Z" fill="#E6E6E6"/>
</g>
<defs>
<clipPath id="clip0">
<path d="M0 0H702V516H0V0Z" fill="white"/>
</clipPath>
</defs>
</svg>

<path d="M491.119 20.7188L510.004 20.7188V12.0836L491.119 12.0836V20.7188Z" fill="#CCCCCC"/>
<path d="M491.119 58.3996H510.004V49.7644H491.119V58.3996Z" fill="#CCCCCC"/>
<path d="M520.233 74.8849H539.118V0.30838H520.233V74.8849Z" fill="#E6E6E6"/>
<path d="M520.233 20.7188L539.118 20.7188V12.0836L520.233 12.0836V20.7188Z" fill="#CCCCCC"/>
<path d="M520.233 58.3996H539.118V49.7644H520.233V58.3996Z" fill="#CCCCCC"/>
<path d="M441.68 66.8341L458.604 75.1934L491.772 8.35934L474.847 4.12773e-05L441.68 66.8341Z" fill="#E6E6E6"/>
<path d="M465.77 18.2915L482.694 26.6508L486.535 18.9121L469.611 10.5528L465.77 18.2915Z" fill="#CCCCCC"/>
<path d="M449.011 52.0603L465.936 60.4196L469.776 52.6809L452.852 44.3216L449.011 52.0603Z" fill="#CCCCCC"/>
<path d="M649.673 30.2431L640.163 46.6762L630.653 63.1094H649.673H668.694L659.183 46.6762L649.673 30.2431Z" fill="#E6E6E6"/>
<path d="M633.149 33.3832L623.639 49.8163L614.129 66.2494H633.149H652.169L642.66 49.8163L633.149 33.3832Z" fill="#E6E6E6"/>
<path d="M626.46 28.569C629.502 28.569 631.968 26.1087 631.968 23.0738C631.968 20.039 629.502 17.5787 626.46 17.5787C623.418 17.5787 620.952 20.039 620.952 23.0738C620.952 26.1087 623.418 28.569 626.46 28.569Z" fill="#E6E6E6"/>
<path d="M406.924 318.24L702 318.24V309.605L406.924 309.605V318.24Z" fill="#E6E6E6"/>
<path d="M602.855 311.96H677.607V237.383H602.855V311.96Z" fill="#E6E6E6"/>
<path d="M617.805 297.045H662.656V252.299H617.805V297.045Z" fill="#CCCCCC"/>
<path d="M491.119 311.96H510.004V237.383H491.119V311.96Z" fill="#E6E6E6"/>
<path d="M491.119 257.794H510.004V249.159H491.119V257.794Z" fill="#CCCCCC"/>
<path d="M491.119 295.475H510.004V286.839H491.119V295.475Z" fill="#CCCCCC"/>
<path d="M520.233 311.96H539.118V237.383H520.233V311.96Z" fill="#E6E6E6"/>
<path d="M520.233 257.794H539.118V249.159H520.233V257.794Z" fill="#CCCCCC"/>
<path d="M520.233 295.475H539.118V286.839H520.233V295.475Z" fill="#CCCCCC"/>
<path d="M441.68 303.909L458.604 312.268L491.772 245.434L474.847 237.075L441.68 303.909Z" fill="#E6E6E6"/>
<path d="M465.77 255.366L482.694 263.726L486.535 255.987L469.611 247.628L465.77 255.366Z" fill="#CCCCCC"/>
<path d="M449.011 289.135L465.936 297.495L469.776 289.756L452.852 281.397L449.011 289.135Z" fill="#CCCCCC"/>
<path d="M649.673 267.318L640.163 283.751L630.653 300.185H649.673H668.694L659.183 283.751L649.673 267.318Z" fill="#E6E6E6"/>
<path d="M633.149 270.458L623.639 286.891L614.129 303.325H633.149H652.169L642.66 286.891L633.149 270.458Z" fill="#E6E6E6"/>
<path d="M626.46 265.644C629.502 265.644 631.968 263.184 631.968 260.149C631.968 257.114 629.502 254.654 626.46 254.654C623.418 254.654 620.952 257.114 620.952 260.149C620.952 263.184 623.418 265.644 626.46 265.644Z" fill="#E6E6E6"/>
<path d="M347.6 516C539.575 516 695.201 504.973 695.201 491.371C695.201 477.768 539.575 466.741 347.6 466.741C155.626 466.741 0 477.768 0 491.371C0 504.973 155.626 516 347.6 516Z" fill="#E6E6E6"/>
<path d="M619.163 505.163C562.484 495.099 500.504 496.772 435.488 505.163C465.121 480.205 490.696 455.248 461.063 430.29C518.866 442.187 526.963 440.982 591.263 430.29C576.349 455.248 604.249 480.205 619.163 505.163Z" fill="#311B92"/>
<path opacity="0.2" d="M619.163 505.163C562.484 495.099 500.504 496.772 435.488 505.163C465.121 480.205 490.696 455.248 461.063 430.29C518.866 442.187 526.963 440.982 591.263 430.29C576.349 455.248 604.249 480.205 619.163 505.163Z" fill="black"/>
<path d="M605.338 494.515C557.191 486.482 504.541 487.817 449.312 494.515C474.485 474.594 496.21 454.672 471.038 434.75C520.139 444.246 527.016 443.285 581.638 434.75C568.969 454.672 592.669 474.594 605.338 494.515Z" fill="#311B92"/>
<path d="M586.999 462.417C601.168 462.417 612.653 450.958 612.653 436.823C612.653 422.688 601.168 411.23 586.999 411.23C572.831 411.23 561.346 422.688 561.346 436.823C561.346 450.958 572.831 462.417 586.999 462.417Z" fill="#2F2E41"/>
<path d="M470.544 407.138L488.319 410.094L497.207 435.708L471.532 451.471L441.906 407.138H469.557H470.544Z" fill="#A0616A"/>
<path d="M520.907 446.545C543.813 446.545 562.382 428.02 562.382 405.168C562.382 382.316 543.813 363.791 520.907 363.791C498.001 363.791 479.432 382.316 479.432 405.168C479.432 428.02 498.001 446.545 520.907 446.545Z" fill="#A0616A"/>
<path d="M291.807 254.436C291.807 254.436 191.082 265.273 173.307 263.303C155.532 261.332 147.632 259.362 147.632 259.362C147.632 259.362 135.782 275.125 141.707 282.021C145.025 285.995 149.041 289.333 153.557 291.873C153.557 291.873 164.419 288.917 172.319 291.873C180.219 294.828 260.207 307.636 274.032 295.814C287.857 283.991 291.807 254.436 291.807 254.436Z" fill="#2F2E41"/>
<path d="M298.719 474.13C298.719 474.13 232.556 455.412 220.706 372.657V364.776C220.706 364.776 207.615 387.687 202.931 392.361C197.5 397.779 178.244 446.545 179.231 451.471C180.219 456.397 179.231 458.367 179.231 458.367L150.594 455.412V446.545C150.594 446.545 165.9 400.735 166.888 389.898C167.875 379.061 204.906 303.695 204.906 303.695C204.906 303.695 218.731 275.125 242.431 303.695C266.131 332.265 268.106 351.968 268.106 351.968L298.719 411.079L298.719 474.13Z" fill="#2F2E41"/>
<path d="M150.593 256.407L118.993 245.57C118.993 245.57 89.3684 223.896 96.2809 245.57C103.193 267.243 134.793 314.532 143.681 309.606C152.568 304.68 163.257 292.453 160.875 290.685C158.493 288.917 142.693 276.11 150.593 256.407Z" fill="#2F2E41"/>
<path d="M154.413 440.729L128.904 453.157C128.904 453.157 98.056 457.892 115.26 466.77C132.464 475.647 179.922 485.117 182.295 476.831C184.668 468.545 183.727 454.794 181.231 455.159C178.736 455.525 161.532 457.3 154.413 440.729Z" fill="#2F2E41"/>
<path d="M285.882 409.109C285.882 409.109 273.044 464.278 294.769 476.1C316.494 487.922 468.57 489.893 480.42 468.219C492.27 446.545 486.345 446.545 486.345 446.545L454.745 411.079L480.42 409.109C480.42 409.109 480.42 401.227 471.532 400.242C462.645 399.257 434.994 389.405 411.294 396.301C387.594 403.197 373.769 382.509 373.769 382.509L285.882 409.109Z" fill="#575A89"/>
<path d="M269.095 236.703L252.307 328.325L367.845 314.532L388.582 231.777L269.095 236.703Z" fill="#3F3D56"/>
<path d="M272.551 240.151L258.726 321.921L363.894 309.606L384.138 235.225L272.551 240.151Z" fill="white"/>
<path d="M256.257 329.31L252.307 328.325L250.332 332.265L281.932 419.946L284.904 418.812L285.882 413.05L256.257 329.31Z" fill="#B3B3B3"/>
<path d="M252.307 327.339L283.907 418.96L403.394 401.227L367.845 314.532L252.307 327.339Z" fill="#D0CDE1"/>
<path d="M268.106 324.384V329.31L355.994 319.458L355.006 314.532L268.106 324.384Z" fill="#3F3D56"/>
<path d="M270.081 334.236L283.906 372.657L373.769 361.821L357.969 325.369L270.081 334.236Z" fill="#3F3D56"/>
<path d="M382.656 388.42L379.694 380.539C379.694 380.539 356.981 341.132 345.131 349.013C333.281 356.894 369.819 395.316 369.819 395.316H381.669L382.656 388.42Z" fill="#A0616A"/>
<path d="M307.606 394.331L304.644 382.509C304.644 382.509 296.744 346.057 310.569 348.028C324.394 349.998 328.344 384.479 328.344 384.479L327.356 392.361L307.606 394.331Z" fill="#A0616A"/>
<path d="M331.306 389.405C331.306 389.405 305.631 385.464 304.644 391.376C303.656 397.287 298.719 485.952 323.406 488.908C348.094 491.863 470.544 504.671 457.707 474.13C444.869 443.59 425.119 447.531 425.119 447.531L341.181 456.397L331.306 389.405Z" fill="#575A89"/>
<path d="M408.825 400.735L382.657 382.509L365.375 395.809L387.1 419.453L408.825 400.735Z" fill="#575A89"/>
<path opacity="0.2" d="M338.713 418.468L342.662 455.905L410.8 451.964L351.55 450.979L338.713 418.468Z" fill="black"/>
<path d="M541.38 461.945C568.649 461.945 590.755 439.891 590.755 412.686C590.755 385.481 568.649 363.428 541.38 363.428C514.111 363.428 492.005 385.481 492.005 412.686C492.005 439.891 514.111 461.945 541.38 461.945Z" fill="#2F2E41"/>
<path d="M287.363 268.721L348.588 266.595L354.513 244.092L291.313 245.995L287.363 268.721Z" fill="#311B92"/>
<path d="M271.563 281.529L364.388 278.573L365.375 274.632L272.551 277.893L271.563 281.529Z" fill="#E6E6E6"/>
<path d="M269.588 291.38L362.413 288.425L363.401 284.484L270.575 287.744L269.588 291.38Z" fill="#E6E6E6"/>
<path d="M268.601 299.261L361.425 296.306L362.413 292.365L269.588 295.625L268.601 299.261Z" fill="#E6E6E6"/>
</g>
<defs>
<clipPath id="clip0">
<path d="M0 0H702V516H0V0Z" fill="white"/>
</clipPath>
</defs>
</svg>
