<svg width="130" height="56" viewBox="0 0 130 56" fill="none" xmlns="http://www.w3.org/2000/svg">
<path d="M51.4439 35.8309H49.1183V29.8995H43.1103V35.8309H40.7754V22.4829H43.1103V28.0384H49.1183V22.4829H51.4439V35.8309Z" fill="#311B92"/>
<path d="M59.9622 35.8309C59.8637 35.6415 59.7776 35.3328 59.7037 34.905C58.9901 35.6445 58.1164 36.0143 57.0828 36.0143C56.0799 36.0143 55.2616 35.7301 54.6279 35.1617C53.9942 34.5933 53.6773 33.8904 53.6773 33.0531C53.6773 31.9958 54.0711 31.186 54.8586 30.6237C55.6523 30.0553 56.7844 29.7711 58.2548 29.7711H59.6299V29.1202C59.6299 28.6068 59.4853 28.1973 59.1962 27.8918C58.907 27.5801 58.4671 27.4242 57.8764 27.4242C57.3658 27.4242 56.9474 27.5526 56.6213 27.8093C56.2952 28.0598 56.1322 28.3807 56.1322 28.7719H53.8896C53.8896 28.2279 54.0711 27.7206 54.4341 27.25C54.7971 26.7733 55.2893 26.4005 55.9107 26.1316C56.5383 25.8627 57.2366 25.7282 58.0056 25.7282C59.1746 25.7282 60.1067 26.0216 60.802 26.6083C61.4972 27.1889 61.8541 28.0079 61.8725 29.0652V33.539C61.8725 34.4313 61.9987 35.1434 62.2509 35.6751V35.8309H59.9622ZM57.4981 34.2266C57.941 34.2266 58.3563 34.1196 58.7439 33.9057C59.1377 33.6918 59.433 33.4046 59.6299 33.044V31.1738H58.4209C57.5903 31.1738 56.9659 31.3174 56.5475 31.6046C56.1291 31.8919 55.9199 32.2983 55.9199 32.8239C55.9199 33.2518 56.0614 33.594 56.3444 33.8507C56.6336 34.1013 57.0182 34.2266 57.4981 34.2266Z" fill="#311B92"/>
<path d="M68.3235 34.2358C68.8834 34.2358 69.3479 34.0738 69.717 33.7499C70.0862 33.426 70.2831 33.0256 70.3077 32.5489H72.4211C72.3965 33.1662 72.2027 33.7438 71.8397 34.2816C71.4767 34.8133 70.9845 35.235 70.3631 35.5467C69.7417 35.8584 69.071 36.0143 68.3512 36.0143C66.9545 36.0143 65.8471 35.5651 65.0288 34.6666C64.2105 33.7682 63.8014 32.5275 63.8014 30.9446V30.7154C63.8014 29.2058 64.2074 27.9987 65.0196 27.0942C65.8317 26.1835 66.9392 25.7282 68.3419 25.7282C69.5294 25.7282 70.4953 26.0735 71.2398 26.7641C71.9904 27.4487 72.3842 28.3501 72.4211 29.4686H70.3077C70.2831 28.9002 70.0862 28.4327 69.717 28.0659C69.354 27.6992 68.8895 27.5159 68.3235 27.5159C67.5975 27.5159 67.0376 27.7787 66.6438 28.3043C66.2501 28.8238 66.0501 29.6153 66.044 30.6787V31.0363C66.044 32.1119 66.2378 32.9156 66.6254 33.4473C67.0191 33.973 67.5852 34.2358 68.3235 34.2358Z" fill="#311B92"/>
<path d="M77.3585 31.5771L76.3618 32.5948V35.8309H74.1192V21.7495H76.3618V29.872L77.0632 29.001L79.8226 25.9116H82.5174L78.8075 30.0462L82.9143 35.8309H80.321L77.3585 31.5771Z" fill="#311B92"/>
<path d="M89.9559 35.8309C89.8575 35.6415 89.7713 35.3328 89.6975 34.905C88.9838 35.6445 88.1101 36.0143 87.0765 36.0143C86.0736 36.0143 85.2553 35.7301 84.6216 35.1617C83.9879 34.5933 83.6711 33.8904 83.6711 33.0531C83.6711 31.9958 84.0648 31.186 84.8523 30.6237C85.646 30.0553 86.7781 29.7711 88.2486 29.7711H89.6237V29.1202C89.6237 28.6068 89.4791 28.1973 89.1899 27.8918C88.9007 27.5801 88.4608 27.4242 87.8702 27.4242C87.3595 27.4242 86.9411 27.5526 86.6151 27.8093C86.289 28.0598 86.1259 28.3807 86.1259 28.7719H83.8833C83.8833 28.2279 84.0648 27.7206 84.4278 27.25C84.7908 26.7733 85.283 26.4005 85.9044 26.1316C86.532 25.8627 87.2303 25.7282 87.9994 25.7282C89.1684 25.7282 90.1005 26.0216 90.7957 26.6083C91.491 27.1889 91.8478 28.0079 91.8663 29.0652V33.539C91.8663 34.4313 91.9924 35.1434 92.2447 35.6751V35.8309H89.9559ZM87.4918 34.2266C87.9348 34.2266 88.3501 34.1196 88.7377 33.9057C89.1315 33.6918 89.4268 33.4046 89.6237 33.044V31.1738H88.4147C87.5841 31.1738 86.9596 31.3174 86.5412 31.6046C86.1229 31.8919 85.9137 32.2983 85.9137 32.8239C85.9137 33.2518 86.0552 33.594 86.3382 33.8507C86.6274 34.1013 87.0119 34.2266 87.4918 34.2266Z" fill="#311B92"/>
<path d="M97.0252 23.5005V25.9116H98.7879V27.5617H97.0252V33.099C97.0252 33.4779 97.099 33.7529 97.2467 33.9241C97.4005 34.0891 97.6712 34.1716 98.0588 34.1716C98.3172 34.1716 98.5787 34.141 98.8433 34.0799V35.8034C98.3326 35.944 97.8404 36.0143 97.3667 36.0143C95.6439 36.0143 94.7826 35.07 94.7826 33.1815V27.5617H93.1398V25.9116H94.7826V23.5005H97.0252Z" fill="#311B92"/>
<path d="M102.719 26.9933C103.452 26.1499 104.378 25.7282 105.497 25.7282C107.626 25.7282 108.706 26.9353 108.737 29.3494V35.8309H106.494V29.4319C106.494 28.7474 106.343 28.2646 106.042 27.9834C105.746 27.6962 105.31 27.5526 104.731 27.5526C103.833 27.5526 103.162 27.9498 102.719 28.7443V35.8309H100.477V21.7495H102.719V26.9933Z" fill="#311B92"/>
<path d="M110.592 30.7796C110.592 29.8078 110.785 28.9338 111.173 28.1576C111.561 27.3753 112.105 26.7764 112.807 26.3608C113.508 25.9391 114.314 25.7282 115.224 25.7282C116.572 25.7282 117.664 26.1591 118.501 27.0208C119.344 27.8826 119.799 29.0255 119.867 30.4495L119.876 30.9721C119.876 31.95 119.685 32.8239 119.304 33.594C118.928 34.3641 118.387 34.96 117.679 35.3817C116.978 35.8034 116.166 36.0143 115.243 36.0143C113.834 36.0143 112.705 35.5498 111.856 34.6208C111.013 33.6857 110.592 32.442 110.592 30.8896V30.7796ZM112.834 30.9721C112.834 31.9927 113.046 32.7934 113.471 33.374C113.896 33.9485 114.486 34.2358 115.243 34.2358C116 34.2358 116.587 33.9424 117.006 33.3557C117.43 32.7689 117.642 31.9102 117.642 30.7796C117.642 29.7772 117.424 28.9827 116.987 28.396C116.557 27.8093 115.969 27.5159 115.224 27.5159C114.492 27.5159 113.911 27.8062 113.48 28.3868C113.05 28.9613 112.834 29.8231 112.834 30.9721Z" fill="#311B92"/>
<path d="M123.853 25.9116L123.918 27.0575C124.656 26.1713 125.625 25.7282 126.825 25.7282C128.905 25.7282 129.963 26.9108 130 29.2761V35.8309H127.757V29.4044C127.757 28.7749 127.619 28.3104 127.342 28.0109C127.071 27.7054 126.625 27.5526 126.004 27.5526C125.099 27.5526 124.426 27.959 123.983 28.7719V35.8309H121.74V25.9116H123.853Z" fill="#311B92"/>
<path d="M30.6391 50.857V55.8167H28.3042V42.4686H33.4447C34.9459 42.4686 36.1364 42.8567 37.0162 43.6329C37.9022 44.4091 38.3452 45.4358 38.3452 46.7132C38.3452 48.0211 37.9114 49.0387 37.0439 49.766C36.1826 50.4933 34.9736 50.857 33.417 50.857H30.6391ZM30.6391 48.9959H33.4447C34.2753 48.9959 34.909 48.8034 35.3458 48.4184C35.7826 48.0272 36.0011 47.4649 36.0011 46.7315C36.0011 46.0103 35.7796 45.4358 35.3366 45.008C34.8936 44.5741 34.2845 44.351 33.5093 44.3388H30.6391V48.9959Z" fill="#311B92"/>
<path d="M39.628 50.7653C39.628 49.7935 39.8218 48.9195 40.2094 48.1433C40.597 47.361 41.1415 46.7621 41.8429 46.3465C42.5443 45.9248 43.3503 45.7139 44.2609 45.7139C45.6083 45.7139 46.7004 46.1448 47.5371 47.0066C48.38 47.8683 48.8353 49.0112 48.903 50.4353L48.9122 50.9578C48.9122 51.9357 48.7215 52.8097 48.34 53.5798C47.9647 54.3498 47.4233 54.9457 46.7157 55.3674C46.0144 55.7892 45.2022 56 44.2793 56C42.8704 56 41.7414 55.5355 40.8923 54.6065C40.0494 53.6714 39.628 52.4277 39.628 50.8753V50.7653ZM41.8706 50.9578C41.8706 51.9785 42.0829 52.7791 42.5074 53.3597C42.9319 53.9342 43.5226 54.2215 44.2793 54.2215C45.0361 54.2215 45.6237 53.9281 46.042 53.3414C46.4666 52.7547 46.6788 51.896 46.6788 50.7653C46.6788 49.763 46.4604 48.9684 46.0236 48.3817C45.5929 47.795 45.0053 47.5016 44.2609 47.5016C43.5287 47.5016 42.9473 47.7919 42.5166 48.3725C42.0859 48.947 41.8706 49.8088 41.8706 50.9578Z" fill="#311B92"/>
<path d="M56.0369 47.9325C55.7416 47.8836 55.437 47.8591 55.1232 47.8591C54.0957 47.8591 53.4036 48.2503 53.0467 49.0326V55.8167H50.8041V45.8973H52.9452L53.0006 47.0066C53.542 46.1448 54.2926 45.7139 55.2524 45.7139C55.5724 45.7139 55.8369 45.7567 56.0461 45.8423L56.0369 47.9325Z" fill="#311B92"/>
<path d="M60.7251 43.4862V45.8973H62.4878V47.5474H60.7251V53.0847C60.7251 53.4636 60.799 53.7387 60.9466 53.9098C61.1004 54.0748 61.3711 54.1573 61.7588 54.1573C62.0172 54.1573 62.2787 54.1268 62.5432 54.0656V55.7892C62.0326 55.9297 61.5403 56 61.0666 56C59.3439 56 58.4825 55.0557 58.4825 53.1672V47.5474H56.8398V45.8973H58.4825V43.4862H60.7251Z" fill="#311B92"/>
<path d="M70.1755 55.8167C70.077 55.6272 69.9909 55.3185 69.9171 54.8907C69.2034 55.6302 68.3297 56 67.2961 56C66.2932 56 65.4749 55.7158 64.8412 55.1474C64.2075 54.579 63.8906 53.8762 63.8906 53.0389C63.8906 51.9815 64.2844 51.1717 65.0719 50.6094C65.8656 50.041 66.9977 49.7568 68.4681 49.7568H69.8432V49.1059C69.8432 48.5926 69.6986 48.1831 69.4095 47.8775C69.1203 47.5658 68.6804 47.4099 68.0897 47.4099C67.5791 47.4099 67.1607 47.5383 66.8346 47.795C66.5085 48.0456 66.3455 48.3664 66.3455 48.7576H64.1029C64.1029 48.2136 64.2844 47.7064 64.6474 47.2357C65.0104 46.759 65.5026 46.3862 66.124 46.1173C66.7516 45.8484 67.4499 45.7139 68.219 45.7139C69.3879 45.7139 70.3201 46.0073 71.0153 46.594C71.7105 47.1746 72.0674 47.9936 72.0858 49.0509V53.5247C72.0858 54.4171 72.212 55.1291 72.4642 55.6608V55.8167H70.1755ZM67.7114 54.2123C68.1544 54.2123 68.5696 54.1054 68.9573 53.8915C69.351 53.6775 69.6463 53.3903 69.8432 53.0297V51.1595H68.6343C67.8037 51.1595 67.1792 51.3031 66.7608 51.5904C66.3424 51.8776 66.1332 52.2841 66.1332 52.8097C66.1332 53.2375 66.2747 53.5798 66.5578 53.8364C66.8469 54.087 67.2315 54.2123 67.7114 54.2123Z" fill="#311B92"/>
<path d="M76.8202 55.8167H74.5776V41.7352H76.8202V55.8167Z" fill="#311B92"/>
<path d="M0 0H7.9817V55.96H0V0Z" fill="#311B92"/>
<path d="M13.968 0H21.9497V15.4889H13.968V0Z" fill="#311B92"/>
<path d="M27.9359 0C32.3441 0 35.9176 3.57916 35.9176 7.99429V27.98C35.9176 32.3951 32.3441 35.9743 27.9359 35.9743V0Z" fill="#311B92"/>
<path d="M13.968 20.4854H21.9497V35.9743H13.968V20.4854Z" fill="#311B92"/>
</svg>
