<svg width="38" height="38" viewBox="0 0 38 38" fill="none" xmlns="http://www.w3.org/2000/svg">
<path d="M35.7048 8.39586L31.0735 6.35586C31.0716 6.35149 31.0723 6.34586 31.0704 6.34149C30.9116 5.80399 30.5073 5.35711 29.961 5.11524L29.7848 5.03649C29.8327 4.7665 29.8165 4.48901 29.7373 4.22649C29.5779 3.69524 29.1754 3.25586 28.6335 3.02086L25.6904 1.74399C25.4181 1.62636 25.1245 1.56595 24.8279 1.56649C24.2466 1.56649 23.711 1.78774 23.3335 2.17274L23.0041 2.02649C22.7327 1.90626 22.4391 1.84451 22.1423 1.84524C21.831 1.84524 21.5385 1.91961 21.2716 2.03961L17.7466 0.486489C16.5173 -0.0535113 14.9816 0.363364 14.2948 1.41024L0.364129 22.6921C-0.321496 23.739 -0.0127461 25.1971 1.07038 25.9596L16.9079 37.1109C18.3098 38.0984 20.1154 37.9246 20.916 36.7034L37.1604 11.8865C37.9604 10.6652 37.2954 9.09649 35.7048 8.39586ZM20.3385 5.02149L21.416 3.37586C21.5654 3.14711 21.8498 3.01711 22.1429 3.01711C22.2735 3.01711 22.406 3.04274 22.5291 3.09774L23.736 3.63274L24.0841 3.10149C24.236 2.87086 24.5273 2.73836 24.8285 2.73836C24.9623 2.73836 25.0985 2.76399 25.2248 2.81899L28.1679 4.09649C28.5979 4.28274 28.7654 4.71524 28.5416 5.06024L28.1829 5.60711L29.4873 6.18649C29.9266 6.38086 30.0998 6.82336 29.8716 7.17399L28.7304 8.91524C28.5779 9.14899 28.2873 9.27899 27.981 9.27899C27.8285 9.27899 27.6723 9.24586 27.5266 9.17899L20.6604 5.95399C20.2648 5.76836 20.121 5.35211 20.3385 5.02149ZM18.3948 35.2602L2.071 24.0996L16.4291 2.16711L19.7991 3.70586L19.3585 4.37961C19.2191 4.59061 19.1267 4.82913 19.0875 5.07899C19.0484 5.32885 19.0634 5.58421 19.1316 5.82774C19.2766 6.34211 19.6523 6.77461 20.1616 7.01399L27.0273 10.239C27.3256 10.3778 27.6507 10.4499 27.9798 10.4502C28.6973 10.4502 29.3448 10.1159 29.7104 9.55524L30.3779 8.53586L34.621 10.4734L18.3948 35.2602Z" fill="#311B92"/>
<path d="M18.5541 11.1102L27.7398 15.8209L28.2523 15.0371L19.036 10.3734L18.5541 11.1102Z" fill="#311B92"/>
<path d="M15.4091 10.5415C15.446 10.6452 15.5566 10.6846 15.6585 10.6271L18.146 9.23274C18.1696 9.22049 18.19 9.203 18.2057 9.18162C18.2215 9.16023 18.2321 9.13553 18.2368 9.1094C18.2415 9.08326 18.2402 9.0564 18.2329 9.03087C18.2256 9.00534 18.2126 8.98182 18.1948 8.96211L18.0585 8.79961C18.0191 8.75505 17.966 8.72498 17.9075 8.71422C17.849 8.70345 17.7887 8.71262 17.736 8.74024L16.0335 9.69899C15.9335 9.75649 15.821 9.71836 15.786 9.61399L15.4866 8.74274C15.451 8.64086 15.3266 8.57774 15.2091 8.60211L14.9935 8.64649C14.8766 8.67024 14.8079 8.77461 14.8435 8.87649L15.4091 10.5415Z" fill="#311B92"/>
<path d="M15.7316 15.4202L24.7354 20.4102L25.2491 19.6265L16.2148 14.6827L15.7316 15.4202Z" fill="#311B92"/>
<path d="M15.5716 13.2046L12.8835 11.7571L11.3498 14.1009L14.0085 15.594L15.5716 13.2046Z" fill="#311B92"/>
<path d="M12.911 19.7302L21.7316 24.9996L22.2441 24.214L13.3923 18.9934L12.911 19.7302Z" fill="#311B92"/>
<path d="M12.7748 17.479L10.1398 15.9465L8.60663 18.2902L11.2104 19.869L12.7748 17.479Z" fill="#311B92"/>
<path d="M10.0898 24.0396L18.7273 29.5871L19.2416 28.8034L10.5716 23.3034L10.0898 24.0396Z" fill="#311B92"/>
<path d="M5.86288 22.4815L8.41163 24.1421L9.976 21.7521L7.39663 20.139L5.86288 22.4815Z" fill="#311B92"/>
</svg>
