<svg width="28" height="38" viewBox="0 0 28 38" fill="none" xmlns="http://www.w3.org/2000/svg">
<path d="M14.7156 15.6331C14.4436 15.6078 14.1707 15.5939 13.8975 15.5912C8.48 15.5912 4.09062 19.9887 4.09062 25.415C4.09062 27.0337 4.48875 28.5556 5.18062 29.9013C4.81986 28.8061 4.63569 27.6605 4.635 26.5075C4.635 20.7544 9.07937 16.0519 14.7156 15.6331Z" fill="#311B92"/>
<path d="M17.8331 33.4619C16.8754 34.1033 15.8236 34.5917 14.7156 34.9094C16.2633 34.7189 17.7445 34.1669 19.0394 33.2981C23.5413 30.2719 24.7631 24.2356 21.7688 19.8119C21.616 19.591 21.454 19.3766 21.2831 19.1694C24.05 24.0025 22.605 30.2538 17.8331 33.4619Z" fill="#311B92"/>
<path d="M21.66 15.5744V10.1381C21.66 9.91062 21.5356 9.71937 21.36 9.60063L27.5 0.25H15.7275L13.75 3.21625L11.7725 0.25H0L6.13875 9.6C5.96313 9.71875 5.83875 9.91062 5.83875 10.1381V15.5744C3.03812 17.8669 1.25 21.3487 1.25 25.25C1.25 32.1531 6.84688 37.75 13.75 37.75C14.1763 37.75 14.5963 37.7281 15.0113 37.6862C21.3219 37.0544 26.25 31.7281 26.25 25.25C26.25 21.3487 24.4606 17.8669 21.66 15.5744ZM19.2663 0.875H23.2212L17.705 9.14937L15.7275 6.18313L19.2663 0.875ZM19.6825 12.1156L20.2906 11.2044C20.3237 11.2825 20.3419 11.3675 20.3419 11.4569V14.0938C20.3413 14.1753 20.3246 14.2559 20.2927 14.331C20.2609 14.4061 20.2145 14.4742 20.1562 14.5312C18.2812 13.4075 16.095 12.75 13.75 12.75C11.4919 12.7504 9.27661 13.3664 7.3425 14.5319C7.22528 14.416 7.15856 14.2586 7.15688 14.0938V11.4569C7.15688 11.3675 7.17625 11.2819 7.20813 11.2044L7.81625 12.1163L19.6825 12.1156ZM4.27875 0.875H8.23375L15.3113 11.4906H11.3562L4.27875 0.875ZM13.75 35.875C7.88188 35.875 3.125 31.1181 3.125 25.25C3.125 19.3825 7.88188 14.625 13.75 14.625C19.6169 14.625 24.375 19.3825 24.375 25.25C24.375 31.1181 19.6169 35.875 13.75 35.875Z" fill="#311B92"/>
<path d="M15.1462 29.7544V18.375H12.7437C12.7438 18.6241 12.6948 18.8707 12.5996 19.1009C12.5043 19.331 12.3647 19.5401 12.1886 19.7163C12.0125 19.8924 11.8034 20.0321 11.5733 20.1275C11.3432 20.2228 11.0966 20.2719 10.8475 20.2719V22.6425C11.0188 22.6425 12.3131 22.545 12.7437 22.3725V29.7544H10.8475V32.125H17.0425V29.7544H15.1462Z" fill="#311B92"/>
</svg>
