<svg width="20" height="20" viewBox="0 0 20 20" fill="none" xmlns="http://www.w3.org/2000/svg">
<path d="M17.2554 2.74445C14.4291 -0.0814843 9.84665 -0.0814843 7.0204 2.74445C4.3954 5.37008 4.21259 9.50852 6.46446 12.3491L5.8729 12.9407L5.38165 12.4495L1.36758 16.4632C1.13196 16.3135 0.950397 16.2495 0.876335 16.3241L0.656647 16.5432C0.29946 16.9004 3.09977 19.7013 3.45696 19.3438L3.67665 19.1245C3.75102 19.0504 3.68633 18.8685 3.53727 18.6323L7.55102 14.6188L7.05946 14.1276L7.65133 13.5363C10.4923 15.7885 14.6298 15.6054 17.2557 12.9801C20.0813 10.1535 20.082 5.57133 17.2554 2.74445ZM16.4026 12.127C14.047 14.482 10.2285 14.4826 7.87352 12.127C5.51821 9.77227 5.51821 5.95258 7.87352 3.59789C10.2279 1.24258 14.0476 1.24258 16.4026 3.59789C18.7576 5.9532 18.757 9.77164 16.4026 12.127Z" fill="#858585"/>
<path d="M17.2866 7.46945C17.027 8.15906 16.6234 8.78538 16.1026 9.30664C14.0673 11.3423 10.7663 11.3423 8.73008 9.3057C7.86948 8.44769 7.33721 7.31492 7.22602 6.10477C6.52102 7.96383 6.91352 10.1441 8.4104 11.641C10.4463 13.677 13.7473 13.677 15.7832 11.641C16.9251 10.5001 17.4254 8.9607 17.2866 7.46945Z" fill="#858585"/>
</svg>
