<svg width="40" height="40" viewBox="0 0 40 40" fill="none" xmlns="http://www.w3.org/2000/svg">
<path d="M28.4113 36.0312C28.2513 35.6644 19.5619 30.495 19.5519 30.4881C18.3263 29.5869 18.1769 28.71 19.1656 28.2062C20.0138 27.7756 20.7431 26.3875 21.2931 24.9019C21.3913 24.9469 21.5025 24.9551 21.6063 24.925C23.9144 24.25 23.9556 19.5919 22.4119 20.4144C23.855 7.82373 6.42313 7.81749 7.86625 20.415C6.32063 19.5906 6.36313 24.25 8.67063 24.925C8.77457 24.9549 8.88577 24.9469 8.98438 24.9025C9.53375 26.3875 10.2619 27.7756 11.11 28.2062C12.1069 28.7137 11.91 29.5475 10.6994 30.5075C10.2956 30.8281 4.67 33.9644 3.08188 35.0256C3.07875 35.0262 3.07312 35.03 3.07312 35.03H3.075C2.41938 35.4694 1.95313 35.8344 1.86625 36.0319C1.41375 37.075 1.25 38.75 1.25 38.75H29.0275C29.0275 38.75 28.865 37.075 28.4113 36.0312Z" fill="#311B92"/>
<path d="M21.59 12.4169C22.7244 13.6894 23.9731 15.8806 23.8825 19.31C24.3225 19.6394 24.69 20.2031 24.815 21.0769C25.045 22.6906 24.3881 25.3344 22.29 26.1575C21.7219 27.4981 21.1012 28.4444 20.4119 29.0262H38.75C38.75 29.0262 38.5862 27.3512 38.1337 26.3075C37.9737 25.9412 29.2844 20.7719 29.275 20.7644C28.0481 19.8637 27.8994 18.9869 28.8881 18.4831C29.7362 18.0519 30.465 16.6644 31.0156 15.1787C31.1156 15.2225 31.2219 15.2325 31.3287 15.2006C33.6362 14.5269 33.6781 9.86874 32.1344 10.6912C33.5475 -1.63376 16.885 -1.89189 17.5331 9.91873C19.0981 10.3562 20.5125 11.2094 21.59 12.4169Z" fill="#311B92"/>
</svg>
