<svg width="538" height="296" viewBox="0 0 538 296" fill="none" xmlns="http://www.w3.org/2000/svg">
<path d="M0 0H538V296H0V0Z" fill="white"/>
<path d="M535.732 0.242188H110.568V272.832H535.732V0.242188Z" fill="#E6E6E6"/>
<path d="M301.654 36.8457H148.164V194.737H301.654V36.8457Z" fill="white"/>
<path d="M512.551 39.9082H359.061V231.676H512.551V39.9082Z" fill="white"/>
<path d="M510.505 292.649C525.69 292.649 538 290.889 538 288.717C538 286.546 525.69 284.785 510.505 284.785C495.32 284.785 483.01 286.546 483.01 288.717C483.01 290.889 495.32 292.649 510.505 292.649Z" fill="#E6E6E6"/>
<path d="M235.612 292.739C250.797 292.739 263.107 290.979 263.107 288.807C263.107 286.635 250.797 284.875 235.612 284.875C220.427 284.875 208.117 286.635 208.117 288.807C208.117 290.979 220.427 292.739 235.612 292.739Z" fill="#E6E6E6"/>
<path d="M63.1029 287.899C97.9537 287.899 126.206 286.545 126.206 284.874C126.206 283.204 97.9537 281.85 63.1029 281.85C28.2521 281.85 0 283.204 0 284.874C0 286.545 28.2521 287.899 63.1029 287.899Z" fill="#E6E6E6"/>
<path d="M535.55 0H110.387V18.0821H535.55V0Z" fill="#311B92"/>
<path d="M123.809 12.5953C125.658 12.5953 127.157 11.0949 127.157 9.24396C127.157 7.39304 125.658 5.89258 123.809 5.89258C121.961 5.89258 120.462 7.39304 120.462 9.24396C120.462 11.0949 121.961 12.5953 123.809 12.5953Z" fill="#E6E6E6"/>
<path d="M136.517 12.5953C138.366 12.5953 139.864 11.0949 139.864 9.24396C139.864 7.39304 138.366 5.89258 136.517 5.89258C134.668 5.89258 133.169 7.39304 133.169 9.24396C133.169 11.0949 134.668 12.5953 136.517 12.5953Z" fill="#E6E6E6"/>
<path d="M149.224 12.5953C151.073 12.5953 152.571 11.0949 152.571 9.24396C152.571 7.39304 151.073 5.89258 149.224 5.89258C147.375 5.89258 145.876 7.39304 145.876 9.24396C145.876 11.0949 147.375 12.5953 149.224 12.5953Z" fill="#E6E6E6"/>
<path d="M478.71 91.3447H477.78V65.8459C477.78 63.9079 477.399 61.9888 476.658 60.1983C475.917 58.4077 474.832 56.7808 473.463 55.4104C472.094 54.04 470.469 52.9529 468.68 52.2113C466.891 51.4696 464.974 51.0879 463.038 51.0879H409.074C407.138 51.0879 405.221 51.4696 403.433 52.2113C401.644 52.9529 400.019 54.04 398.65 55.4104C397.281 56.7808 396.195 58.4077 395.454 60.1983C394.714 61.9888 394.332 63.9079 394.332 65.8459V205.734C394.332 207.673 394.714 209.592 395.454 211.382C396.195 213.173 397.281 214.8 398.65 216.17C400.019 217.54 401.644 218.627 403.433 219.369C405.221 220.111 407.138 220.492 409.074 220.492H463.038C464.974 220.492 466.891 220.111 468.68 219.369C470.469 218.627 472.094 217.54 473.463 216.17C474.832 214.8 475.917 213.173 476.658 211.382C477.399 209.592 477.78 207.673 477.78 205.734V109.495H478.71V91.3447Z" fill="#3F3D56"/>
<path d="M463.029 54.9297H455.985C456.309 55.7247 456.432 56.5874 456.345 57.4415C456.257 58.2957 455.961 59.1152 455.483 59.8279C455.005 60.5405 454.358 61.1245 453.601 61.5283C452.844 61.932 452 62.1433 451.142 62.1433H420.227C419.369 62.1433 418.525 61.932 417.768 61.5282C417.011 61.1245 416.365 60.5405 415.886 59.8279C415.408 59.1152 415.112 58.2957 415.024 57.4415C414.937 56.5874 415.06 55.7247 415.384 54.9297H408.805C407.359 54.9297 405.928 55.2148 404.592 55.7686C403.256 56.3225 402.043 57.1343 401.02 58.1577C399.998 59.1811 399.187 60.396 398.634 61.7332C398.081 63.0703 397.796 64.5035 397.796 65.9508V205.634C397.796 207.081 398.081 208.514 398.634 209.852C399.187 211.189 399.998 212.404 401.02 213.427C402.043 214.451 403.256 215.262 404.592 215.816C405.928 216.37 407.359 216.655 408.805 216.655H463.029C464.475 216.655 465.906 216.37 467.242 215.816C468.578 215.262 469.791 214.451 470.814 213.427C471.836 212.404 472.647 211.189 473.2 209.852C473.753 208.514 474.038 207.081 474.038 205.634V65.9508C474.038 63.0278 472.878 60.2245 470.814 58.1577C468.749 56.0908 465.949 54.9297 463.029 54.9297Z" fill="white"/>
<path d="M278.357 136.582H171.673V141.453H278.357V136.582Z" fill="#E6E6E6"/>
<path d="M278.357 152.311H171.673V157.182H278.357V152.311Z" fill="#311B92"/>
<path d="M278.357 168.039H171.673V172.911H278.357V168.039Z" fill="#E6E6E6"/>
<path d="M467.661 147.211H405.381V152.082H467.661V147.211Z" fill="#E6E6E6"/>
<path d="M467.661 162.334H405.381V167.205H467.661V162.334Z" fill="#E6E6E6"/>
<path d="M467.661 177.459H405.381V182.33H467.661V177.459Z" fill="#E6E6E6"/>
<path d="M474.173 253.104V242.713H463.793V253.104H474.173Z" fill="#3F3D56"/>
<path d="M457.45 253.104V242.713H447.07V253.104H457.45Z" fill="#311B92"/>
<path d="M440.726 253.104V242.713H430.346V253.104H440.726Z" fill="#3F3D56"/>
<path d="M424.003 253.104V242.713H413.623V253.104H424.003Z" fill="#3F3D56"/>
<path d="M407.28 253.104V242.713H396.899V253.104H407.28Z" fill="#3F3D56"/>
<path d="M453.217 84.082H418.617V118.72H453.217V84.082Z" fill="#311B92"/>
<path d="M211.263 166.719L210.815 167.616L209.471 160.89C209.471 160.89 207.68 153.717 211.263 153.717C214.846 153.717 213.95 160.89 213.95 160.89V165.822L211.263 166.719Z" fill="#A0616A"/>
<path d="M270.025 165.801L270.473 166.698L271.816 159.972C271.816 159.972 273.608 152.799 270.025 152.799C266.442 152.799 267.338 159.972 267.338 159.972V164.904L270.025 165.801Z" fill="#A0616A"/>
<path d="M230.968 217.141L225.594 250.318L228.281 282.599L234.551 279.909L233.656 255.698L239.926 236.419L241.269 259.285L238.582 283.047L246.644 283.944L252.466 235.074L252.018 218.485L230.968 217.141Z" fill="#2F2E41"/>
<path d="M230.969 278.562L227.833 283.493V294.513C227.834 294.831 227.946 295.138 228.152 295.379C228.357 295.621 228.642 295.782 228.955 295.832C230.492 296.085 233.167 296.264 234.104 294.702C235.447 292.46 234.551 287.529 234.551 287.529C234.551 287.529 236.343 283.942 235.447 281.252C234.551 278.562 233.656 278.113 233.656 278.113L230.969 278.562Z" fill="#2F2E41"/>
<path d="M244.405 283.046L245.3 284.391C245.3 284.391 246.644 285.736 245.748 286.633C245.091 287.33 244.492 288.079 243.957 288.874C243.957 288.874 239.03 290.22 239.03 288.426V282.598L244.405 283.046Z" fill="#2F2E41"/>
<path d="M242.79 180.648C246.069 180.648 248.727 177.987 248.727 174.705C248.727 171.423 246.069 168.762 242.79 168.762C239.512 168.762 236.854 171.423 236.854 174.705C236.854 177.987 239.512 180.648 242.79 180.648Z" fill="#A0616A"/>
<path d="M238.806 176.564L238.358 185.083L246.42 185.532L245.972 177.013L238.806 176.564Z" fill="#A0616A"/>
<path d="M247.539 185.754L246.268 182.645C246.268 182.645 240.374 180.374 238.582 182.616L237.687 185.306L230.521 183.512L226.49 192.479L230.073 218.035C230.073 218.035 239.478 230.14 252.018 218.483L255.601 194.273L252.914 184.857L247.539 185.754Z" fill="#575A89"/>
<path d="M252.018 186.652L252.914 184.858L261.871 179.478L267.338 163.279L271.568 165.094L266.797 184.41L253.809 196.515L252.018 186.652Z" fill="#575A89"/>
<path d="M231.416 184.41L230.521 183.513L221.116 177.685L214.398 164.234L209.024 166.027L214.845 182.616L229.177 194.274L231.416 184.41Z" fill="#575A89"/>
<path d="M247.197 165.604L248.167 165.118L246.711 164.632V164.147C246.711 164.147 239.431 161.231 238.461 166.09C237.208 167.775 236.531 169.82 236.531 171.92C236.531 174.021 237.208 176.065 238.461 177.751V179.208L246.226 180.18L247.197 177.265C247.197 177.265 252.05 168.519 247.197 165.604Z" fill="#2F2E41"/>
<path d="M69.5476 217.666L67.8221 218.53C67.8221 218.53 60.9201 221.697 62.9332 223.424C64.9463 225.151 70.4104 221.697 70.4104 221.697L71.5607 220.257L69.5476 217.666Z" fill="#FFB8B8"/>
<path d="M120.032 217.234L114.698 253.076L106.646 278.122L102.332 276.107L106.358 241.848L94.8547 232.059L95.7177 217.664L120.032 217.234Z" fill="#2F2E41"/>
<path d="M101.757 276.971C101.757 276.971 106.646 274.38 106.933 278.123L106.358 281.865C106.358 281.865 108.084 288.487 102.332 287.048C96.5804 285.608 100.607 281.29 100.607 281.29L101.757 276.971Z" fill="#2F2E41"/>
<path d="M98.5936 228.895L94.855 232.061C94.855 232.061 94.855 251.638 97.4432 254.517C100.031 257.396 116.424 272.079 116.999 272.655C117.574 273.23 120.162 266.897 120.162 266.897L104.633 248.759L105.783 237.531L98.5936 228.895Z" fill="#2F2E41"/>
<path d="M118.437 266.031C118.437 266.031 123.038 265.168 123.038 268.335C123.095 270.838 123.287 273.337 123.613 275.82C123.613 275.82 124.763 285.896 121.025 284.457C117.286 283.017 115.848 272.941 115.848 272.941C116.196 272.103 116.8 271.398 117.574 270.926C118.724 270.35 118.437 266.031 118.437 266.031Z" fill="#2F2E41"/>
<path d="M104.057 174.48L104.92 185.133L102.62 189.163L96.2928 183.117L95.7175 175.056L104.057 174.48Z" fill="#FFB8B8"/>
<path d="M98.881 177.936C102.693 177.936 105.783 174.843 105.783 171.027C105.783 167.211 102.693 164.117 98.881 164.117C95.0691 164.117 91.979 167.211 91.979 171.027C91.979 174.843 95.0691 177.936 98.881 177.936Z" fill="#FFB8B8"/>
<path d="M101.757 184.845L104.633 176.496L109.809 182.254L119.299 218.816L112.11 223.135L108.947 218.528L108.371 224.574L94.2794 221.695L93.1294 183.117L96.0034 179.065L101.757 184.845Z" fill="#D0CDE1"/>
<path d="M97.7304 225.727L96.0052 179.088L92.2665 181.967L85.3643 186.573L89.9659 202.983L91.4035 220.257L97.7304 225.727Z" fill="#2F2E41"/>
<path d="M87.3777 186.86L85.3643 186.572L79.6126 203.558L68.1094 217.953L72.4234 222.559L85.6519 209.604L90.5412 198.952L87.3777 186.86Z" fill="#2F2E41"/>
<path d="M118.784 217.928L118.392 219.819C118.392 219.819 116.596 227.204 119.198 226.693C121.8 226.182 122.478 219.748 122.478 219.748L122.063 217.952L118.784 217.928Z" fill="#FFB8B8"/>
<path d="M104.183 176.029L118.437 181.679L116.711 198.953L120.162 217.954L116.711 221.696L103.951 178.476L104.183 176.029Z" fill="#2F2E41"/>
<path d="M99.2424 159.422L101.268 158.408V159.422L102.619 158.746V160.436C102.619 160.436 107.684 164.155 106.671 168.549C105.658 172.943 105.658 173.281 105.658 173.281C105.658 173.281 104.377 164.924 99.3124 166.277C94.2475 167.629 93.8399 167.873 92.4892 171.591L92.1228 173.186C92.1228 173.186 86.4114 160.098 99.2424 159.422Z" fill="#2F2E41"/>
<path d="M116.424 181.678H118.724L122.463 201.83V219.392L117.862 218.528L114.123 192.042L116.424 181.678Z" fill="#2F2E41"/>
<path d="M86.9307 224.297H2.13623V283.286H86.9307V224.297Z" fill="#311B92"/>
<path d="M44.5335 235.807C40.9804 235.807 37.5071 236.861 34.5528 238.838C31.5984 240.814 29.2958 243.623 27.9361 246.909C26.5764 250.195 26.2206 253.811 26.9138 257.3C27.607 260.788 29.318 263.993 31.8304 266.508C34.3429 269.023 37.5439 270.736 41.0288 271.43C44.5136 272.124 48.1258 271.768 51.4084 270.407C54.6911 269.045 57.4968 266.74 59.4708 263.783C61.4448 260.825 62.4985 257.348 62.4985 253.791C62.4845 249.026 60.5873 244.459 57.2213 241.09C53.8552 237.72 49.2938 235.821 44.5335 235.807ZM44.5335 241.202C45.5995 241.202 46.6415 241.518 47.5278 242.111C48.4141 242.704 49.1049 243.547 49.5128 244.533C49.9207 245.518 50.0274 246.603 49.8195 247.65C49.6115 248.697 49.0982 249.658 48.3445 250.412C47.5907 251.167 46.6304 251.681 45.585 251.889C44.5395 252.097 43.4559 251.99 42.4711 251.582C41.4863 251.174 40.6445 250.482 40.0523 249.595C39.4601 248.708 39.1441 247.664 39.1441 246.597C39.1488 245.168 39.7182 243.798 40.7279 242.788C41.7376 241.777 43.1056 241.207 44.5335 241.202ZM44.5335 267.176C42.4045 267.166 40.3099 266.636 38.4316 265.633C36.5533 264.629 34.9478 263.182 33.7546 261.417C33.8409 257.82 40.9405 255.84 44.5335 255.84C48.1265 255.84 55.2261 257.82 55.3125 261.417C54.1179 263.181 52.5121 264.627 50.6341 265.63C48.7561 266.634 46.6622 267.164 44.5335 267.176Z" fill="white"/>
<path d="M278.086 54.9941H171.731V116.094H278.086V54.9941Z" fill="#E6E6E6"/>
<path d="M488.388 176.181L488.881 172.999C488.881 172.999 491.753 166.462 489.483 166.11C487.213 165.758 485.319 171.981 485.319 171.981L486.15 178.626L488.388 176.181Z" fill="#FFB8B8"/>
<path d="M511.634 194.219L491.341 190.139L488.983 175.342L483.01 174.881L483.302 194.011L500.933 203.265L511.634 194.219Z" fill="#575A89"/>
<path opacity="0.2" d="M511.634 194.219L491.341 190.139L488.983 175.342L483.01 174.881L483.302 194.011L500.933 203.265L511.634 194.219Z" fill="black"/>
<path d="M456.428 172.268H518.708V167.396H456.428V172.268Z" fill="#311B92"/>
<path d="M484.424 175.089L484.428 171.869C484.428 171.869 486.274 164.972 483.977 164.969C481.679 164.966 480.752 171.405 480.752 171.405L482.582 177.847L484.424 175.089Z" fill="#FFB8B8"/>
<path d="M510.838 184.312L513.622 183.632C514.685 183.634 515.734 183.399 516.695 182.944C517.655 182.489 518.503 181.827 519.176 181.004C519.849 180.181 520.332 179.219 520.588 178.187C520.844 177.154 520.868 176.078 520.657 175.035C520.659 173.804 520.418 172.584 519.949 171.445C519.479 170.307 518.79 169.272 517.921 168.4C517.053 167.528 516.021 166.836 514.885 166.363C513.748 165.89 512.53 165.646 511.3 165.645C510.07 165.643 508.851 165.884 507.714 166.354C506.576 166.824 505.543 167.513 504.672 168.383C503.801 169.253 503.109 170.286 502.637 171.424C502.165 172.561 501.921 173.78 501.919 175.012C501.559 176.267 501.534 177.594 501.848 178.861C502.161 180.128 502.801 181.291 503.704 182.232C504.607 183.174 505.742 183.862 506.994 184.227C508.246 184.592 509.571 184.621 510.838 184.312Z" fill="#2F2E41"/>
<path d="M494.462 230.763L496.729 255.605L500.833 279.99L507.726 279.999L506.837 256.078L503.197 227.094L494.462 230.763Z" fill="#2F2E41"/>
<path d="M501.754 278.609L497.156 281.364C497.156 281.364 489.803 282.274 491.179 284.576C492.554 286.878 508.638 285.518 508.639 284.598C508.64 283.678 508.187 278.617 507.268 278.616L501.754 278.609Z" fill="#2F2E41"/>
<path d="M514.808 228.615C514.808 228.615 514.678 232.167 511.455 237.683L511.893 254.703L528.408 275.883L522.429 280.936L502.24 257.911L497.22 230.305L503.661 223.873L514.808 228.615Z" fill="#2F2E41"/>
<path d="M527.03 275.883C527.03 275.883 532.543 276.81 531.621 279.109C530.699 281.407 528.388 291.984 522.417 290.597C522.417 290.597 519.66 290.593 520.581 288.755C521.135 287.649 521.75 286.574 522.423 285.537L522.43 279.557L527.03 275.883Z" fill="#2F2E41"/>
<path d="M507.854 184.78C511.661 184.78 514.746 181.691 514.746 177.88C514.746 174.07 511.661 170.98 507.854 170.98C504.048 170.98 500.962 174.07 500.962 177.88C500.962 181.691 504.048 184.78 507.854 184.78Z" fill="#FFB8B8"/>
<path d="M511.065 182.484L511.055 190.304L503.703 190.295L504.632 182.477L511.065 182.484Z" fill="#FFB8B8"/>
<path d="M501.869 187.532L504.096 186.984L511.058 187.544C511.058 187.544 514.73 191.228 514.269 192.148C513.808 193.067 511.483 215.604 511.483 215.604L515.598 231.709L500.893 232.61L493.542 231.681L494.957 202.703C494.957 202.703 491.75 194.879 495.889 192.585C498.226 191.357 500.267 189.633 501.869 187.532Z" fill="#575A89"/>
<path d="M510.137 189.383L489.461 188.437L484.884 174.172L478.91 174.624L482.103 193.488L500.934 199.952L510.137 189.383Z" fill="#575A89"/>
<path d="M521.159 172.796C523.615 172.796 525.606 170.803 525.606 168.344C525.606 165.886 523.615 163.893 521.159 163.893C518.703 163.893 516.712 165.886 516.712 168.344C516.712 170.803 518.703 172.796 521.159 172.796Z" fill="#2F2E41"/>
<path d="M517.056 165.951C517.056 165.293 517.203 164.642 517.485 164.047C517.767 163.453 518.177 162.928 518.686 162.511C519.195 162.094 519.791 161.795 520.429 161.636C521.067 161.477 521.733 161.463 522.378 161.593C521.809 161.323 521.189 161.178 520.56 161.167C519.931 161.155 519.306 161.278 518.728 161.526C518.15 161.774 517.63 162.142 517.205 162.606C516.779 163.07 516.457 163.62 516.259 164.218C516.062 164.816 515.993 165.449 516.058 166.076C516.123 166.702 516.32 167.308 516.637 167.852C516.953 168.397 517.381 168.868 517.893 169.235C518.405 169.601 518.989 169.855 519.606 169.979C518.843 169.619 518.198 169.049 517.746 168.336C517.295 167.623 517.055 166.795 517.056 165.951Z" fill="#2F2E41"/>
<path d="M513.241 168.476L507.246 167.371L502.636 170.264C501.502 170.975 500.596 171.997 500.025 173.208C499.454 174.419 499.242 175.768 499.414 177.096L504.032 175.925L505.065 173.329L506.297 175.35L511.293 184.094L516.351 181.34L519.573 176.284L513.241 168.476Z" fill="#2F2E41"/>
<path d="M172.032 54.4704L171.43 55.5195L277.785 116.619L278.387 115.57L172.032 54.4704Z" fill="white"/>
<path d="M277.788 54.4731L171.428 115.564L172.03 116.614L278.389 55.5223L277.788 54.4731Z" fill="white"/>
<path d="M419.313 83.6036L418.458 84.459L452.903 118.941L453.757 118.085L419.313 83.6036Z" fill="white"/>
<path d="M452.903 83.604L418.458 118.086L419.313 118.941L453.757 84.4595L452.903 83.604Z" fill="white"/>
</svg>
